<svg width="268" height="214" viewBox="0 0 268 214" fill="none" xmlns="http://www.w3.org/2000/svg">
<path d="M166.415 174.238L181.136 166.627C178.97 163.645 177.598 158.596 176.73 153.479C174.945 142.959 180.318 132.821 188.901 126.483C205.059 114.549 228.025 119.53 237.788 137.085L238.247 137.91C246.929 153.521 241.369 173.213 225.805 181.979L221.637 184.327C209.417 191.21 193.969 187.675 185.957 176.165L166.415 174.238Z" stroke="#0B6A85"/>
<path d="M199.18 156.443C196.249 152.81 213.876 140.872 214.252 140.885C215.506 140.929 219.546 146.104 218.328 147.493C217.69 147.87 199.767 157.172 199.18 156.443Z" stroke="#0B6A85"/>
<path d="M67.7597 113.931L55.1179 104.507L52.2103 104.829C42.3928 105.918 32.8547 100.117 28.7288 90.5487C23.9778 79.5309 27.7526 66.7841 37.5085 60.902L39.3519 59.7905C43.7681 57.1279 48.9079 55.9963 54.0596 56.5524L56.0798 56.7705C66.3178 57.8756 74.8045 66.0658 76.7818 76.6781C78.8928 88.008 73.001 99.1086 62.7842 102.93L67.7597 113.931Z" stroke="#0B6A85"/>
<path d="M51.2856 86.5989C51.0587 86.5177 47.221 77.193 46.774 75.5593C45.9524 72.5562 47.0961 71.083 48.4152 70.4399C49.7344 69.7969 51.9314 71.6979 52.5831 72.8868C53.2349 74.0756 52.9835 77.8789 52.7704 78.5991C52.6 79.1753 52.7529 82.7701 53.1443 84.556C53.2669 85.1308 53.3788 86.392 52.8453 86.8383C52.1786 87.3962 51.5124 86.68 51.2856 86.5989Z" stroke="#0B6A85"/>
<path d="M127.72 169.869L130.345 143.244C121.306 142.656 106.432 140.966 95.3745 139.389C86.494 138.122 82.0537 130.798 83.5391 121.393C85.113 111.428 87.1922 97.874 89.0098 84.7438C90.9896 70.4407 103.327 60.0765 116.81 61.8444L167.953 68.5502C180.642 70.2139 189.869 82.0795 189.027 95.6486L187.247 124.332C186.353 138.741 174.49 149.622 160.956 148.446L146.622 147.201L127.72 169.869Z" stroke="#0B6A85"/>
<path d="M138.043 111.038C136.301 111.18 135.325 109.259 135.289 108.688C134.834 101.659 136.723 76.0037 139.777 76.5227C142.83 77.0418 147.953 76.651 148.172 79.5234C147.913 80.6735 139.437 110.924 138.043 111.038Z" stroke="#0B6A85"/>
<path d="M99.7952 182.345L77.1627 176.48C68.5872 184.756 55.447 191.581 53.8675 191.995C52.2881 192.409 32.3238 160.9 19.7914 145.197L72.3852 105.287L104.56 153.556L87.7223 169.196L99.7952 182.345Z" stroke="#0B6A85"/>
<path d="M62.5601 156.883C61.0095 157.022 45.6183 138.704 45.3662 137.633C45.189 136.879 55.0071 130.595 56.5797 131.942C58.1522 133.288 60.9837 141.52 61.6783 143.521C62.7307 146.552 64.1618 152.421 65.0436 154.942C65.4909 155.68 63.6422 156.786 62.5601 156.883Z" stroke="#0B6A85"/>
</svg>
