<svg width="1440" height="667" viewBox="0 0 1440 667" fill="none" xmlns="http://www.w3.org/2000/svg">
<path d="M352.5 448.479C324.5 440.479 302.51 426.492 311.5 438.479C326.5 458.479 329.485 380.951 292.355 376.802M292.355 376.802C285.352 376.02 274.435 374.087 263.299 385.045C252.162 396.004 278.512 430.936 294.479 408.845C302.845 397.271 295.554 383.867 292.355 376.802ZM292.355 376.802C287.508 366.097 288.427 365.847 273.99 354.39C259.553 342.932 245.472 346.495 237.854 348.03C237.386 348.124 236.898 348.224 236.394 348.332M236.394 348.332C228.691 349.982 217.287 353.337 218.076 361.412C218.917 370.016 228.001 368.338 231.589 367.198C233.69 366.53 240.04 356.102 236.394 348.332ZM236.394 348.332C233.815 342.836 226.234 338.669 208.607 340.228C174.572 343.239 153.034 336.842 146.519 333.268C145.658 332.982 144.208 332.669 142.87 332.756M142.87 332.756C141.833 332.823 140.863 333.131 140.29 333.877C138.649 336.011 144.103 346.397 147.245 340.698C149.047 337.432 146.783 334.862 142.87 332.756ZM142.87 332.756C140.002 331.212 136.247 329.917 132.558 328.779M132.558 328.779C132.502 328.762 132.445 328.744 132.388 328.727C129.158 327.734 114.891 324.09 97.6343 319.756M132.558 328.779C133.18 327.536 132.871 325.448 131.776 322.47C129.761 316.984 106.74 307.283 95.482 303.118C87.7707 302.809 77.0782 302.441 66.8127 302.198M132.558 328.779C131.748 330.399 129.357 330.587 125.06 329.443C117.463 327.422 107.226 324.869 103.928 325.192C100.63 325.514 95.1116 329.607 98.3105 332.058C101.509 334.509 103.784 335.076 103.571 336.676C103.357 338.276 101.388 340.837 97.3193 340.84C93.2504 340.843 91.9218 338.604 92.0971 336.613C92.2144 335.28 92.4959 333.932 93.3281 333.121M97.6343 319.756C77.3984 314.674 53.0516 308.644 37.5711 304.83C36.4591 304.807 34.3434 304.356 34.7768 302.734C35.0435 301.736 50.3811 301.808 66.8127 302.198M97.6343 319.756C97.283 321.087 96.6786 322.639 95.7139 324.415C93.6654 328.188 93.1134 331.016 93.3281 333.121M97.6343 319.756C98.4705 316.59 97.8729 314.68 97.2851 313.997C89.6841 311.369 77.0366 306.695 66.8127 302.198M66.8127 302.198C59.8707 299.144 54.046 296.171 51.6772 293.976C44.3553 287.19 39.7895 282.109 41.3541 279.193C42.9186 276.276 46.14 275.172 47.9721 274.992L59.3313 273.882C62.9318 272.872 70.8154 271.023 73.5454 271.703C76.9579 272.554 89.6457 273.683 130.108 290.258C170.57 306.834 177.548 310.1 180.113 309.849C182.678 309.599 184.663 310.984 188.311 306.679C191.96 302.374 205.881 282.063 211.767 277.934C217.652 273.806 219.079 273.272 221.431 274.621C223.312 275.7 223.005 283.153 222.616 286.744L218.495 308.14M93.3281 333.121C93.7395 332.72 94.2854 332.451 95.0127 332.38C97.2112 332.165 100.044 334.652 100.158 335.825C100.273 336.998 97.5328 339.24 95.5096 337.464C94.5033 336.58 93.5405 335.204 93.3281 333.121ZM218.495 308.14L218.199 309.68C217.237 313.722 214.964 321.998 213.559 322.767C211.803 323.729 205.612 324.729 202.2 323.878C198.787 323.027 190.672 319.477 189.343 317.238C188.015 314.999 185.686 310.094 187.113 309.56C188.541 309.026 189.946 312.047 197.405 316.45C204.864 320.854 212.215 316.582 213.413 313.701C214.611 310.82 215.115 308.402 216.58 308.259C216.788 308.239 217.47 308.197 218.495 308.14ZM218.495 308.14C223.254 307.874 235.415 307.278 241.978 306.961C245.302 306.899 251.979 307.089 252.101 308.341C252.254 309.905 224.52 313.8 221.337 315.295C218.154 316.791 216.185 319.352 215.971 320.952C215.758 322.553 214.384 327.425 215.598 328.49C216.569 329.343 238.024 329.588 248.63 329.605C250.488 329.686 254.241 330.241 254.394 331.805C254.585 333.76 243.784 336.79 234.76 335.303C225.737 333.816 222.034 333.783 220.569 333.927C219.103 334.07 190.636 338.037 178.162 335.308C171.351 333.818 172.004 331.476 174.463 329.587M174.463 329.587C175.607 328.709 177.141 327.929 178.497 327.379C181.866 326.523 189.383 325.209 192.498 326.8C196.391 328.788 198.376 330.174 198.086 330.992C197.796 331.809 187.536 332.812 184.895 332.281C183.822 332.065 179.37 331.007 174.463 329.587ZM174.463 329.587C167.291 327.513 159.146 324.668 159.16 322.557C159.177 319.713 168.968 315.676 173.861 314.014C168.143 314.871 158.185 315.772 150.817 316.682C145.188 317.378 141.396 318.25 140.227 318.091C137.527 317.723 92.6337 296.685 70.5244 286.212C68.9695 285.443 66.165 283.243 67.3861 280.596C68.6071 277.95 72.8314 279.538 74.791 280.662L139.019 309.523" stroke="#0B6A85"/>
<path d="M1440 445.923L1347.05 447.094C1351.91 446.226 1361.89 444.179 1362.93 442.929C1364.23 441.367 1372.3 433.687 1369.18 422.103C1366.05 410.518 1361.89 397.763 1350.04 397.632C1338.19 397.502 1321.01 399.455 1321.66 423.274C1322.18 442.33 1334.2 446.487 1340.15 446.183C1343.1 445.229 1348.37 442.513 1345.87 439.284C1342.75 435.249 1329.34 429.132 1330.77 422.103C1332.2 415.074 1342.36 408.826 1350.04 409.087C1357.72 409.347 1365.14 431.735 1357.59 434.729C1350.04 437.723 1347.05 435.9 1347.05 434.729C1347.05 433.557 1386.62 436.161 1389.1 434.729C1391.57 433.297 1396.26 434.078 1395.74 424.446C1395.22 414.814 1395.09 383.054 1392.09 382.273C1389.1 381.492 1372.17 377.587 1369.18 379.93C1366.18 382.273 1370.74 396.982 1372.04 396.721C1373.34 396.461 1373.73 348.301 1370.61 346.348C1368.11 344.786 1358.2 344.483 1353.56 344.526L1352.51 346.348C1352.73 357.803 1352.85 381.596 1351.6 385.137C1350.04 389.562 1345.87 390.473 1342.23 390.603C1339.31 390.708 1291.89 391.428 1268.54 391.775C1260.51 380.885 1244.46 358.323 1244.46 355.199C1244.46 351.294 1262.16 293.893 1260.86 292.591C1259.56 291.289 1254.22 286.864 1253.44 287.645C1252.66 288.426 1254.87 291.159 1255.92 291.42C1256.96 291.68 1300.31 292.591 1304.08 292.591C1307.86 292.591 1347.31 291.289 1347.57 289.858C1347.78 288.712 1345.05 282.178 1343.66 279.054C1314.67 278.837 1256.77 279.158 1257.09 282.178C1257.48 285.953 1359.41 288.946 1360.07 287.645C1360.72 286.343 1357.2 282.178 1356.16 282.178C1355.12 282.178 1360.2 338.408 1359.02 339.71C1357.85 341.011 1354.6 343.875 1353.56 342.964C1352.51 342.053 1351.08 299.88 1346.27 299.88C1341.45 299.88 1346.92 352.336 1342.23 355.199C1337.54 358.063 1319.97 385.657 1322.7 385.918C1325.44 386.178 1337.15 370.689 1336.5 355.199C1335.85 339.71 1336.24 334.113 1332.73 334.113C1329.21 334.113 1327.26 337.627 1327.39 344.526C1327.52 351.425 1325.04 368.215 1302 368.085C1283.57 367.981 1281.13 370.732 1282.21 372.12C1280.87 374.03 1278.39 378.264 1279.22 379.93C1280.26 382.013 1281.69 384.486 1289.11 384.095C1296.53 383.705 1303.82 379.93 1308.12 379.93C1312.42 379.93 1319.84 380.19 1319.58 382.143C1319.32 384.095 1275.57 386.178 1274.27 385.137C1272.97 384.095 1260.6 370.819 1261.77 368.085C1262.95 365.352 1273.62 354.158 1273.1 351.945C1272.58 349.732 1265.81 348.17 1264.38 346.348C1262.95 344.526 1259.04 342.313 1259.56 341.402C1260.08 340.491 1271.93 348.301 1273.1 348.821C1274.27 349.342 1282.21 356.371 1281.17 357.933C1280.13 359.495 1269.06 350.513 1268.02 350.123C1267.19 349.81 1262.03 357.542 1259.56 361.447L1250.84 351.945C1257.17 334.547 1269.3 299.359 1267.11 297.797C1264.38 295.845 1242.25 362.228 1242.12 363.92C1241.98 365.612 1244.85 375.765 1242.9 379.93C1241.33 383.262 1220.37 382.273 1210.09 381.362C1220.63 381.319 1242.56 381.518 1245.89 382.664C1250.06 384.095 1258.26 384.486 1268.02 400.756C1277.79 417.027 1283.25 434.729 1289.89 435.249C1295.21 435.666 1313.98 436.638 1322.7 437.072L1321.66 438.243C1304.61 438.634 1270 439.18 1268.02 438.243C1265.55 437.072 1259.56 404.791 1247.45 399.064C1235.35 393.337 1201.89 394.118 1202.15 396.591C1202.41 399.064 1248.23 391.384 1255 416.506C1261.77 441.627 1239.9 449.177 1234.82 448.786C1229.75 448.396 1203.71 438.894 1212.17 413.903C1220.63 388.911 1247.45 407.525 1249.02 409.607C1250.26 411.273 1250.14 416.115 1249.93 418.328C1247.15 416.289 1240.24 412.211 1234.82 412.211C1228.05 412.211 1219.2 417.677 1219.72 425.747C1220.24 433.818 1232.22 437.072 1234.82 437.072C1237.43 437.072 1250.45 436.462 1247.45 425.747C1244.46 415.032 1243.68 406.093 1234.82 405.182C1225.97 404.271 1214.26 402.448 1212.17 402.969C1210.09 403.49 1208.92 403.099 1208.92 405.182C1208.92 407.264 1209.44 435.249 1207.22 435.249C1205.01 435.249 1201.63 296.886 1203.32 296.496C1205.01 296.105 1222.72 293.112 1223.5 294.804C1224.28 296.496 1224.67 314.979 1223.5 317.973C1222.33 320.966 1196.03 321.357 1192.9 320.446C1189.78 319.535 1191.08 295.194 1191.99 293.893C1192.9 292.591 1192.38 296.496 1194.86 296.496C1196.84 296.496 1200.02 295.368 1201.37 294.804C1198.55 293.719 1192.9 293.138 1192.9 299.49C1192.9 305.842 1194.03 399.758 1194.6 445.923L1133.41 447.094C1128.77 446.226 1119.56 444.309 1119.87 443.58C1120.18 442.851 1166.09 441.801 1189 441.367C1189.69 413.512 1190.95 357.646 1190.43 357.021C1189.78 356.241 1187.31 353.377 1187.31 355.199C1187.31 357.022 1197.8 358.063 1200.72 358.583C1203.05 359 1202.64 367.261 1202.15 371.339C1202.45 374.203 1202.59 379.93 1200.72 379.93C1198.37 379.93 1190.17 378.499 1188.22 379.93C1186.26 381.362 1185.48 392.686 1186.39 393.467C1187.31 394.248 1201.24 396.721 1202.15 393.467C1203.06 390.213 1202.67 388 1200.72 388C1199.15 388 1201.02 425.574 1202.15 444.361C539 396.591 824 544.317 344 448.786" stroke="#0B6A85"/>
<path opacity="0.1" d="M344 305C344 397.232 267.888 472 174 472C80.1115 472 3.99988 397.232 3.99988 305C3.99988 212.768 80.1115 138 174 138C267.888 138 344 212.768 344 305Z" fill="#C4C4C4"/>
<path opacity="0.1" d="M1417 363C1417 455.232 1340.89 530 1247 530C1153.11 530 1077 455.232 1077 363C1077 270.768 1153.11 196 1247 196C1340.89 196 1417 270.768 1417 363Z" fill="#C4C4C4"/>
</svg>
