<svg width="1440" height="400" viewBox="0 0 1440 400" fill="none" xmlns="http://www.w3.org/2000/svg">
<path d="M1440 225.495L1315.3 227.07C1321.82 225.903 1335.21 223.149 1336.61 221.468C1338.35 219.368 1349.18 209.04 1344.99 193.46C1340.8 177.88 1335.21 160.724 1319.32 160.549C1303.42 160.374 1280.37 163 1281.24 195.035C1281.94 220.663 1298.07 226.253 1306.04 225.845C1310 224.561 1317.08 220.908 1313.73 216.567C1309.54 211.14 1291.55 202.913 1293.47 193.46C1295.39 184.006 1309.01 175.604 1319.32 175.954C1329.62 176.304 1339.58 206.414 1329.45 210.44C1319.32 214.466 1315.3 212.015 1315.3 210.44C1315.3 208.864 1368.39 212.366 1371.71 210.44C1375.03 208.514 1381.32 209.565 1380.62 196.611C1379.92 183.656 1379.75 140.943 1375.73 139.892C1371.71 138.842 1349.01 133.59 1344.99 136.741C1340.97 139.892 1347.09 159.674 1348.83 159.323C1350.58 158.973 1351.1 94.2026 1346.91 91.5767C1343.56 89.4761 1330.26 89.0676 1324.03 89.126L1322.63 91.5767C1322.93 106.982 1323.09 138.982 1321.41 143.743C1319.32 149.695 1313.73 150.921 1308.84 151.096C1304.92 151.236 1241.3 152.204 1209.98 152.671C1199.21 138.025 1177.67 107.682 1177.67 103.48C1177.67 98.2288 1201.43 21.029 1199.68 19.2785C1197.93 17.5279 1190.77 11.576 1189.72 12.6264C1188.68 13.6767 1191.65 17.3529 1193.04 17.703C1194.44 18.0531 1252.6 19.2785 1257.66 19.2785C1262.73 19.2785 1315.65 17.528 1316 15.6024C1316.28 14.0619 1312.62 5.27405 1310.76 1.0727C1271.87 0.78094 1194.2 1.21274 1194.61 5.27405C1195.14 10.3507 1331.89 14.3769 1332.76 12.6264C1333.64 10.8758 1328.92 5.27405 1327.52 5.27405C1326.13 5.27405 1332.94 80.8983 1331.37 82.6488C1329.79 84.3994 1325.43 88.2506 1324.03 87.0252C1322.63 85.7998 1320.71 29.0816 1314.25 29.0816C1307.79 29.0816 1315.12 99.6292 1308.84 103.48C1302.55 107.332 1278.97 144.444 1282.64 144.794C1286.31 145.144 1302.03 124.312 1301.15 103.48C1300.28 82.6488 1300.8 75.1214 1296.09 75.1214C1291.37 75.1214 1288.75 79.848 1288.93 89.126C1289.1 98.4039 1285.78 120.986 1254.87 120.811C1230.14 120.671 1226.87 124.371 1228.32 126.238C1226.52 128.805 1223.19 134.501 1224.31 136.741C1225.7 139.542 1227.62 142.868 1237.58 142.343C1247.53 141.818 1257.31 136.741 1263.08 136.741C1268.84 136.741 1278.8 137.091 1278.45 139.717C1278.1 142.343 1219.41 145.144 1217.67 143.743C1215.92 142.343 1199.33 124.487 1200.9 120.811C1202.47 117.135 1216.8 102.08 1216.1 99.1041C1215.4 96.1281 1206.32 94.0275 1204.4 91.5767C1202.47 89.126 1197.23 86.1499 1197.93 84.9245C1198.63 83.6992 1214.52 94.2025 1216.1 94.9027C1217.67 95.603 1228.32 105.056 1226.93 107.157C1225.53 109.257 1210.68 97.1785 1209.29 96.6533C1208.17 96.2332 1201.25 106.632 1197.93 111.883L1186.23 99.1041C1194.73 75.7049 1211 28.3814 1208.06 26.2807C1204.4 23.6549 1174.7 112.934 1174.53 115.209C1174.36 117.485 1178.2 131.14 1175.58 136.741C1173.48 141.223 1145.36 139.892 1131.57 138.667C1145.71 138.608 1175.12 138.877 1179.59 140.417C1185.18 142.343 1196.19 142.868 1209.29 164.75C1222.38 186.632 1229.72 210.44 1238.63 211.14C1245.75 211.7 1270.94 213.007 1282.64 213.591L1281.24 215.166C1258.36 215.691 1211.94 216.427 1209.29 215.166C1205.97 213.591 1197.93 170.177 1181.69 162.474C1165.45 154.772 1120.56 155.822 1120.91 159.148C1121.26 162.474 1182.74 152.146 1191.82 185.932C1200.9 219.718 1171.56 229.871 1164.75 229.346C1157.94 228.821 1123.01 216.042 1134.36 182.431C1145.71 148.82 1181.69 173.853 1183.79 176.654C1185.46 178.895 1185.3 185.407 1185.01 188.383C1181.28 185.64 1172.01 180.155 1164.75 180.155C1155.67 180.155 1143.79 187.507 1144.49 198.361C1145.19 209.214 1161.26 213.591 1164.75 213.591C1168.24 213.591 1185.71 212.772 1181.69 198.361C1177.67 183.95 1176.63 171.927 1164.75 170.702C1152.87 169.477 1137.15 167.026 1134.36 167.726C1131.57 168.426 1129.99 167.901 1129.99 170.702C1129.99 173.503 1130.69 211.14 1127.72 211.14C1124.75 211.14 1120.21 25.0553 1122.48 24.5302C1124.75 24.005 1148.51 19.9787 1149.55 22.2544C1150.6 24.5302 1151.13 49.3881 1149.55 53.4144C1147.98 57.4407 1112.7 57.9659 1108.51 56.7405C1104.32 55.5151 1106.07 22.7796 1107.29 21.0291C1108.51 19.2785 1107.81 24.5302 1111.13 24.5302C1113.79 24.5302 1118.06 23.013 1119.86 22.2544C1116.08 20.7956 1108.51 20.0137 1108.51 28.5565C1108.51 37.0992 1110.03 163.408 1110.78 225.495L1028.7 227.07C1022.47 225.903 1010.11 223.324 1010.53 222.344C1010.95 221.363 1072.53 219.951 1103.27 219.368C1104.2 181.906 1105.89 106.772 1105.19 105.931C1104.32 104.881 1101 101.03 1101 103.48C1101 105.931 1115.08 107.332 1118.99 108.032C1122.12 108.592 1121.58 119.702 1120.91 125.187C1121.32 129.039 1121.51 136.741 1118.99 136.741C1115.85 136.741 1104.84 134.816 1102.22 136.741C1099.6 138.667 1098.56 153.897 1099.78 154.947C1101 155.997 1119.69 159.323 1120.91 154.947C1122.13 150.571 1121.61 147.595 1118.99 147.595C1116.89 147.595 1119.4 198.128 1120.91 223.394C282.5 188.383 490.587 467.842 -156 383" stroke="#0B6A85"/>
</svg>
