<svg width="1440" height="467" viewBox="0 0 1440 467" fill="none" xmlns="http://www.w3.org/2000/svg">
<circle opacity="0.1" cx="1230.02" cy="233.609" r="175.5" transform="rotate(24.7424 1230.02 233.609)" fill="#C4C4C4"/>
<path d="M1066.5 196C1068.6 198.618 1073.47 206.549 1079.62 209.933C1085.77 213.317 1118.81 225.241 1123.94 224.854C1129.08 224.467 1138.89 230.643 1135.23 235.01C1131.56 239.377 1124.16 238.718 1122.34 237.881C1120.53 237.044 1109.87 225.526 1125.76 218.533C1141.64 211.539 1164.03 211.945 1161.66 221.865C1159.29 231.784 1146.57 225.924 1147.17 223.444C1147.76 220.965 1148.66 214.224 1164.94 219.523C1177.96 223.762 1191.09 235.246 1196.03 240.458C1199.85 245.706 1207.55 256.557 1207.77 257.982C1208 259.407 1220.39 263.248 1226.57 264.99C1228.51 265.152 1232.57 265.113 1233.23 263.66C1233.9 262.206 1234.91 260.027 1235.33 259.119C1237.42 259.35 1242.05 259.352 1243.78 257.507C1245.94 255.201 1247.09 249.124 1249.71 247.028C1252.33 244.931 1256.69 248.595 1259.52 246.044C1262.35 243.493 1262.52 234.763 1265.17 233.783C1267.82 232.804 1276.49 245.057 1282.57 246.206C1288.65 247.354 1321.29 232.669 1325.83 234.761C1330.37 236.854 1359.81 233.904 1370.22 237.6C1380.63 241.295 1381.57 242.831 1382.02 243.041C1382.48 243.25 1372.95 246.014 1368.86 244.131C1364.77 242.247 1338.68 230.773 1333.3 230.497C1327.92 230.22 1296.29 234.359 1292.37 230.904C1289.24 228.14 1281.21 210.528 1277.58 202.068C1273.57 200.033 1263.93 196.327 1257.54 197.784C1249.54 199.604 1236.06 197.796 1231.76 196.367C1227.47 194.937 1214.23 193.792 1207.63 190.199C1201.03 186.606 1174.58 163.957 1167.17 156.139C1159.1 148.566 1155.43 145.774 1147.29 143.125C1141.18 140.858 1126.35 138.646 1115.9 147.927C1102.85 159.528 1097.4 164.176 1092.7 177.973C1087.99 191.769 1084.3 191.03 1086.5 197C1088.7 202.97 1093 202.17 1095.5 201.5C1099.35 200.467 1099.29 194.175 1094 193C1089.5 192 1084.61 197.917 1088.07 201.163C1091.52 204.409 1100.71 211.947 1105.78 209.325C1109.82 207.227 1107.26 203.361 1105.5 202C1104.28 201.069 1100.98 199.984 1098.61 202.17C1095 205.5 1101.83 211.557 1103 212.5C1105.18 214.262 1108.54 218.857 1114.02 215.327C1119.5 211.796 1113 204 1107.14 209.953C1103.47 213.672 1117.34 228.42 1125.69 230.615C1134.04 232.811 1162.8 201.47 1167.82 190.571C1172.84 179.673 1186.8 161.331 1183.62 159.866C1180.44 158.401 1161.32 183.172 1150.82 197.6C1140.31 212.029 1129.53 231.836 1146.27 237.344C1159.65 241.75 1170.58 232.767 1174.37 227.724C1180.8 221.33 1194.47 207.039 1197.68 201.031C1201.7 193.52 1205.77 181.086 1203.05 179.83C1200.32 178.575 1168.57 228.356 1177.94 234.322C1187.3 240.288 1186 234.737 1188.38 239.135C1190.76 243.534 1193.17 249.05 1189.44 251.183C1185.7 253.315 1182.77 252.514 1178.61 248.395C1174.45 244.277 1176.61 241.971 1179.41 238.302C1182.2 234.634 1200.33 249.046 1200.51 254.634C1200.69 260.221 1201.98 265.773 1198.21 266.788C1194.44 267.803 1184.73 257.821 1187.97 254.361C1191.22 250.902 1200.86 251.49 1205.33 258.507C1209.8 265.524 1213.76 277.255 1209.57 279.178C1205.38 281.101 1203.18 282.29 1201.33 280.335C1199.47 278.381 1196.61 272.655 1197.65 270.385C1198.7 268.114 1208.16 263.115 1210.75 267.06C1213.33 271.004 1214.46 285.287 1217.67 287.869C1220.89 290.451 1220.96 292.686 1224.31 292.58C1227.66 292.473 1231.57 288.769 1231.71 286.08C1231.85 283.391 1226.82 279.972 1224.23 276.027C1221.65 272.082 1222.24 269.603 1223.56 269.113C1224.89 268.623 1225.84 284.477 1228.18 287.758C1230.53 291.04 1234.16 292.714 1237.76 293.27C1241.35 293.827 1245.75 291.45 1246.8 289.179C1247.85 286.909 1248.82 282.404 1247 281.566C1245.55 280.897 1240.27 271.49 1237.81 266.87C1237.71 265.904 1237.81 264.006 1239.07 264.145C1240.64 264.319 1243.89 269.672 1243.37 272.733C1242.84 275.795 1241.35 286.668 1249.52 290.435C1257.7 294.202 1264.33 291.754 1266.21 287.667C1267.72 284.397 1262.62 266.006 1259.88 257.219C1258.94 256.055 1256.82 253.826 1255.75 254.218C1254.43 254.708 1270.61 285.29 1271.35 287.28C1271.94 288.872 1274.22 290.991 1275.3 291.852L1278.44 292.2L1284.58 288.425C1286.51 285.828 1290.14 280.194 1289.19 278.434C1288 276.235 1264.08 227.778 1259.54 225.685C1255 223.592 1251.23 217.448 1245.4 216.963C1240.73 216.574 1234.35 216.643 1231.74 216.726C1227.92 216.251 1220.31 214.539 1220.39 211.494C1220.49 207.688 1221.26 203.636 1230.58 208.485C1239.91 213.334 1237.85 204.675 1236.06 204.955C1234.64 205.179 1228.56 203.33 1225.69 202.377C1223.35 203.868 1220.4 207.646 1227.3 210.827C1235.93 214.803 1244.48 202.226 1235.68 199.822C1228.64 197.898 1230.51 199.091 1232.33 199.928C1232.33 199.928 1235.15 199.941 1239.48 199.924C1241.86 199.915 1247.1 200.129 1251.36 200.441C1255.62 200.753 1259.93 199.766 1263.89 200.713C1268.85 201.898 1268.44 202.806 1272.98 204.899C1275.7 206.154 1279.62 216.221 1282.8 218.233C1285.97 220.246 1293.52 224.827 1294.26 226.817C1294.99 228.808 1305.06 242.805 1293.5 252.345C1284.26 259.978 1278.08 252.762 1276.14 248.2L1291.14 276.582L1290.83 288.002C1291.06 290.307 1290.87 294.623 1288.32 293.451C1285.14 291.986 1288.28 285.175 1292.82 287.267C1296.46 288.942 1299.74 288.986 1300.93 288.799C1301.9 289.066 1304.32 288.602 1306.16 284.606C1308 280.61 1308.95 271.392 1309.19 267.283L1310.15 241.301C1309.85 236.789 1307.67 227.574 1301.42 226.813C1295.16 226.053 1303.65 228.729 1308.68 230.162C1311.13 232.023 1315.63 237.547 1314.07 244.756C1312.51 251.964 1311.36 276.908 1310.98 288.479C1309.15 301.215 1304.36 326.499 1299.87 325.747C1295.37 324.995 1299.54 303.758 1302.19 293.234C1300.55 302.756 1299 322.374 1305.87 324.661C1312.75 326.948 1338.51 328.693 1350.54 329.28C1361.17 330.508 1383.21 333.878 1386.37 337.536" stroke="#0B6A85"/>
<path d="M-3 42C29.5 64 150.5 105 199.5 127C248.5 149 400 233.5 652 75C797 30 832 51 911.5 81C967.072 101.971 995 118 1066.5 196" stroke="#0B6A85" stroke-linecap="round" stroke-linejoin="round"/>
</svg>
