<svg width="489" height="430" viewBox="0 0 489 430" fill="none" xmlns="http://www.w3.org/2000/svg">
<circle opacity="0.1" cx="217.122" cy="193.5" r="175.5" fill="#C4C4C4"/>
<path d="M488.206 1C484.206 1 475.506 1 472.706 1C469.206 1 459.706 4.5 455.706 9.5C451.706 14.5 451.206 26 445.206 28.5C439.206 31 420.206 30.5 415.706 31.5C411.206 32.5 360.706 44.5 360.206 46.5C359.806 48.1 363.04 62.5 364.706 69.5C362.04 62.5 356.306 48.4 354.706 48C353.106 47.6 342.04 50.5 336.706 52C327.706 51.5 309.106 50.8 306.706 52C303.706 53.5 276.706 53.5 272.206 52C267.706 50.5 264.601 48.8292 263.706 49.5C261.706 51 263.122 60 269.622 62C274.822 63.6 279.206 66.5019 293.206 60.5C286.04 63.3333 270.906 69.8 267.706 73C264.506 76.2 246.706 94 238.206 102.5C240.206 100.5 244.506 96.7 245.706 97.5C247.206 98.5 248.206 104 245.706 105C243.206 106 239.206 105.5 238.206 104C237.206 102.5 245.706 111.5 250.206 105C254.706 98.5 269.706 80.5 272.206 80C274.206 79.6 285.373 72.5 290.706 69L276.706 79L271.206 82L248.206 111C246.706 112.5 243.906 115.7 244.706 116.5C245.706 117.5 246.706 112.5 249.206 113C251.706 113.5 254.706 116.5 253.706 119C252.706 121.5 247.206 122 244.706 120.5C242.206 119 249.706 125 252.206 123.5C254.206 122.3 270.373 102.333 278.206 92.5L303.706 78L279.206 94L253.706 125C254.706 123.167 257.306 119.7 259.706 120.5C262.706 121.5 263.706 122 261.706 123.5C259.706 125 258.206 127 255.206 126C252.206 125 259.706 131.5 263.706 127.5C266.906 124.3 278.706 110.5 284.206 104L312.206 88L289.706 102.5L271.206 120.5C273.873 118.167 279.206 113.9 279.206 115.5C279.206 117.5 275.206 120.5 273.706 120.5C272.206 120.5 274.206 124.758 276.706 124.129C279.206 123.5 301.706 107 309.706 105.5C317.706 104 335.206 97.5 342.206 94C349.206 90.5 364.206 79 368.706 79C372.306 79 399.873 76.6667 413.206 75.5L414.206 62.5L408.206 40L420.706 63.5L419.706 75.5L414.206 79C400.373 79.8333 371.906 81.9 368.706 83.5C364.706 85.5 349.206 95.5 344.206 97.5C339.206 99.5 318.706 108 309.706 110C300.706 112 276.206 123 271.206 129C266.206 135 270.706 135.5 262.706 139C253.076 143.213 245.957 132.63 233.706 129C220.206 125 222.5 119 208.706 121.5C202.483 122.628 200.5 133.667 203 135.5C207.5 138 213.963 138.821 231 144.5C246 149.5 243.706 150 263.706 153.5C268.557 154.349 233.388 174.02 225.706 180.5C218 187 224.122 186 195.122 176C179.989 170.782 166.5 169 155.206 163C151.646 161.109 148.206 162 150.206 177.5C152.206 193 149.206 230.5 151.706 232.5C154.206 234.5 222.706 254.5 225.706 254.5C228.706 254.5 245.206 242.5 252.206 238C259.206 233.5 269.206 228 270.206 225C271.206 222 271.206 215.64 271.206 212C271.206 205 270.706 190 270.706 186C270.706 182 271 157.5 268 156.5C265 155.5 262 161 248.5 170C235.285 178.81 220.206 185.5 220.206 190.5C220.206 195.5 221.206 223.41 221.206 229C221.206 249 219.622 245.388 210.622 242C196.455 236.667 158.822 226.5 157.622 226.5C156.122 226.5 151.706 229 155.206 231C158.706 233 194.206 202.5 194.206 200C194.206 198 192.817 198.167 192.122 198.5C191.678 200.833 191.473 205.4 194.206 205C196.939 204.6 196.955 160.5 195.122 137.5C195.455 135.667 196.522 132.7 198.122 135.5C199.722 138.3 168.706 154.5 155.206 160.5" stroke="#0B6A85"/>
<path d="M1.00012 429C29 424.5 50.622 397.521 63.122 389.854L130.622 357.354C137.289 353.188 151.322 344.854 154.122 344.854C156.922 344.854 179.622 338.188 190.622 334.854C193.455 335.854 199.722 337.254 202.122 334.854C205.122 331.854 212.622 314.354 218.622 313.854C224.622 313.354 232.122 308.854 233.622 307.854C234.822 307.054 245.789 294.854 251.122 288.854C255.122 283.021 262.822 270.654 261.622 267.854C260.422 265.054 255.622 267.188 254.122 267.854C256.122 264.854 247.522 267.755 245.122 268.955C242.722 270.155 235.289 275.854 230.122 278.354L218.622 282.354L211.622 284.354H176.622C173.955 282.688 166.614 279.573 167.122 278.955C174.122 270.455 184.438 265.867 186.622 262.955C189.622 258.955 189.122 255.854 186.622 254.354C184.122 252.854 172.622 256.455 168.122 258.854C164.378 260.85 154.122 264.955 154.122 266.455C154.122 268.888 157.622 267.556 158.122 280.455C157.289 276.455 154.422 268.254 151.622 267.854C148.122 267.354 143.622 276.354 126.622 297.955C123.653 301.727 131.289 319.188 133.122 331.354C131.122 322.354 125.722 304.054 120.122 302.854C113.122 301.354 100.622 313.354 84.622 318.854C71.822 323.254 50.622 329.021 41.622 331.354L39.622 394.354L48.122 341.354L44.122 395.854C78.122 378.521 146.522 343.754 148.122 343.354C149.722 342.954 177.122 336.188 190.622 332.854C192.622 329.188 195.922 321.254 193.122 318.854C189.622 315.854 199.622 325.854 198.122 330.354C196.922 333.954 206.622 324.188 211.622 318.854L241.122 292.354C244.955 287.521 251.922 277.354 249.122 275.354C246.322 273.354 237.622 279.854 233.622 283.354C226.122 290.188 210.522 303.854 208.122 303.854C205.122 303.854 199.122 292.354 200.622 292.354C202.122 292.354 228.352 283.632 231.122 281.435C231.483 281.148 205.122 294.354 205.122 295.354C205.122 297.955 207.122 297.955 209.122 297.955C211.122 297.955 241.152 272.741 243.122 271.955C244.122 271.556 252.122 268.955 251.122 275.354" stroke="#0B6A85"/>
</svg>
