<svg width="312" height="231" viewBox="0 0 312 231" fill="none" xmlns="http://www.w3.org/2000/svg">
<path d="M315.533 201.794C307.909 165.427 263.561 172.388 287.857 183.574C304.126 191.065 297.485 134.472 260.355 130.323M260.355 130.323C253.352 129.541 242.435 127.608 231.299 138.566C220.162 149.525 246.512 184.457 262.479 162.366C270.845 150.792 263.554 137.388 260.355 130.323ZM260.355 130.323C255.508 119.618 256.427 119.368 241.99 107.911C227.553 96.4533 213.472 100.016 205.854 101.551C205.386 101.645 204.898 101.745 204.394 101.853M204.394 101.853C196.691 103.503 185.287 106.858 186.076 114.933C186.917 123.537 196.001 121.859 199.589 120.719C201.69 120.051 208.04 109.623 204.394 101.853ZM204.394 101.853C201.815 96.3568 194.234 92.1901 176.607 93.7493C142.572 96.76 121.034 90.3635 114.519 86.789C113.658 86.5026 112.208 86.1904 110.87 86.2771M110.87 86.2771C109.833 86.3444 108.863 86.6518 108.29 87.3978C106.649 89.5323 112.103 99.918 115.245 94.2194C117.047 90.9526 114.783 88.3831 110.87 86.2771ZM110.87 86.2771C108.002 84.7331 104.247 83.4382 100.558 82.3004M100.558 82.3004C100.502 82.2829 100.445 82.2654 100.388 82.248C97.1581 81.2553 82.891 77.611 65.6343 73.2774M100.558 82.3004C101.18 81.0568 100.871 78.9689 99.7765 75.9908C97.7606 70.505 74.7402 60.804 63.482 56.6392C55.7707 56.3302 45.0782 55.9623 34.8127 55.7188M100.558 82.3004C99.7479 83.9202 97.3566 84.1076 93.0595 82.9642C85.4635 80.943 75.226 78.3903 71.9282 78.7127C68.6304 79.035 63.1116 83.1276 66.3105 85.5786C69.5095 88.0297 71.7845 88.5969 71.5709 90.1971C71.3574 91.7972 69.3882 94.3585 65.3193 94.3614C61.2504 94.3642 59.9218 92.1252 60.0971 90.1341C60.2144 88.8016 60.4958 87.453 61.3281 86.6422M65.6343 73.2774C45.3984 68.1955 21.0515 62.1655 5.57107 58.3512C4.45906 58.3283 2.34338 57.8771 2.77676 56.2555C3.04349 55.2574 18.3811 55.3289 34.8127 55.7188M65.6343 73.2774C65.283 74.6077 64.6786 76.1599 63.7139 77.9363C61.6654 81.7086 61.1134 84.5367 61.3281 86.6422M65.6343 73.2774C66.4705 70.1112 65.8729 68.2015 65.2851 67.5176C57.6841 64.8901 45.0366 60.2163 34.8127 55.7188M34.8127 55.7188C27.8706 52.665 22.046 49.6925 19.6771 47.4971C12.3553 40.7114 7.78947 35.6303 9.35403 32.7137C10.9186 29.7971 14.14 28.6926 15.9721 28.5136L27.3313 27.4033C30.9318 26.3934 38.8154 24.5437 41.5454 25.2244C44.9579 26.0753 57.6457 27.2042 98.1079 43.7795C138.57 60.3549 145.548 63.621 148.113 63.3703C150.678 63.1196 152.663 64.5048 156.311 60.2001C159.96 55.8954 173.881 35.5839 179.767 31.4554C185.652 27.3269 187.079 26.7926 189.431 28.142C191.312 29.2215 191.005 36.674 190.616 40.2653L186.495 61.6608M61.3281 86.6422C61.7394 86.2414 62.2854 85.972 63.0127 85.901C65.2112 85.6861 68.0438 88.1729 68.1585 89.3462C68.2731 90.5194 65.5328 92.7613 63.5096 90.985C62.5033 90.1015 61.5405 88.7255 61.3281 86.6422ZM186.495 61.6608L186.199 63.2011C185.237 67.2432 182.964 75.5195 181.559 76.2885C179.803 77.2497 173.612 78.2496 170.2 77.3987C166.787 76.5478 158.672 72.9981 157.343 70.7591C156.015 68.5201 153.686 63.6152 155.113 63.0809C156.541 62.5466 157.946 65.5677 165.405 69.9712C172.864 74.3747 180.215 70.103 181.413 67.2222C182.611 64.3414 183.115 61.9233 184.58 61.7801C184.788 61.7598 185.47 61.7179 186.495 61.6608ZM186.495 61.6608C191.254 61.3954 203.415 60.7988 209.978 60.4822C213.302 60.4205 219.979 60.6102 220.101 61.8616C220.254 63.4259 192.52 67.321 189.337 68.8165C186.154 70.3121 184.185 72.8734 183.971 74.4735C183.758 76.0736 182.384 80.9456 183.598 82.0114C184.569 82.864 206.024 83.1095 216.63 83.1257C218.488 83.2074 222.241 83.7618 222.394 85.3261C222.585 87.2814 211.784 90.3112 202.76 88.8243C193.737 87.3374 190.034 87.3044 188.569 87.4477C187.103 87.591 158.636 91.5577 146.162 88.8288C139.351 87.3388 140.004 84.9966 142.463 83.1085M142.463 83.1085C143.607 82.2302 145.141 81.4502 146.497 80.8999C149.866 80.0442 157.383 78.7304 160.498 80.3211C164.391 82.3094 166.376 83.6946 166.086 84.5126C165.796 85.3305 155.536 86.3333 152.895 85.8019C151.822 85.586 147.37 84.5276 142.463 83.1085ZM142.463 83.1085C135.291 81.0342 127.146 78.1893 127.16 76.0781C127.177 73.2337 136.968 69.1973 141.861 67.5346C136.143 68.392 126.185 69.2934 118.817 70.2035C113.188 70.8988 109.396 71.7709 108.227 71.6116C105.527 71.2438 60.6337 50.2059 38.5243 39.7329C36.9694 38.9636 34.1649 36.7636 35.386 34.1175C36.6071 31.4713 40.8314 33.0588 42.791 34.1833L107.019 63.0438" stroke="#0B6A85"/>
</svg>
