<svg width="312" height="313" viewBox="0 0 312 313" fill="none" xmlns="http://www.w3.org/2000/svg">
<path d="M137.117 228.226L153.262 231.967C153.544 228.292 155.771 223.558 158.425 219.098C163.882 209.929 174.543 205.689 185.188 206.422C205.228 207.803 219.493 226.478 215.554 246.175L215.369 247.101C211.866 264.617 194.871 276.014 177.336 272.605L172.64 271.692C158.873 269.017 149.397 256.314 150.753 242.356L137.117 228.226Z" stroke="#0B6A85"/>
<path d="M173.603 235.903C173.726 231.236 194.887 233.566 195.164 233.819C196.091 234.665 195.816 241.225 193.988 241.493C193.257 241.367 173.579 236.838 173.603 235.903Z" stroke="#0B6A85"/>
<path d="M101.052 118.366L97.5298 102.997L95.1064 101.358C86.9237 95.8254 83.4176 85.2267 86.4749 75.2657C89.9955 63.7952 101.13 56.5325 112.372 58.3738L114.497 58.7218C119.586 59.5553 124.234 62.0238 127.797 65.7855L129.195 67.2607C136.276 74.7364 137.433 86.4737 132.063 95.8379C126.329 105.835 114.649 110.473 104.391 106.763L101.052 118.366Z" stroke="#0B6A85"/>
<path d="M106.215 86.8734C106.095 86.6646 109.214 77.0756 109.932 75.5416C111.252 72.7218 113.078 72.3408 114.499 72.7058C115.921 73.0708 116.362 75.9424 116.088 77.2702C115.814 78.598 113.158 81.332 112.53 81.7424C112.026 82.0708 109.814 84.9079 108.954 86.5219C108.675 87.0391 107.943 88.0722 107.248 88.0665C106.378 88.0593 106.335 87.0822 106.215 86.8734Z" stroke="#0B6A85"/>
<path d="M110.475 199.824L129.727 181.246C123.224 174.942 112.99 164.017 105.59 155.65C99.6464 148.931 101.01 140.475 108.236 134.274C115.892 127.704 126.258 118.728 136.15 109.905C146.926 100.293 163.039 100.394 172.163 110.477L206.772 148.724C215.358 158.213 214.698 173.229 205.264 183.019L185.322 203.712C175.304 214.108 159.218 214.708 149.672 205.044L139.56 194.807L110.475 199.824Z" stroke="#0B6A85"/>
<path d="M156.459 161.704C155.04 160.683 155.542 158.588 155.884 158.13C160.092 152.481 178.155 134.165 180.144 136.538C182.134 138.912 186.289 141.934 184.595 144.264C183.652 144.972 157.595 162.521 156.459 161.704Z" stroke="#0B6A85"/>
<path d="M81.122 191.233L67.6838 172.101C55.7901 172.847 41.3587 169.531 39.8874 168.823C38.4162 168.115 43.6275 131.179 44.2567 111.098L110.176 114.779L103.406 172.392L80.4465 173.395L81.122 191.233Z" stroke="#0B6A85"/>
<path d="M69.26 147.712C67.9892 146.813 68.1354 122.888 68.6378 121.908C68.9909 121.22 80.5412 122.795 80.8664 124.84C81.1915 126.884 78.0144 134.989 77.2469 136.963C76.084 139.954 73.3712 145.351 72.4094 147.843C72.2721 148.694 70.1469 148.339 69.26 147.712Z" stroke="#0B6A85"/>
</svg>
