<svg width="559" height="539" viewBox="0 0 559 539" fill="none" xmlns="http://www.w3.org/2000/svg">
<path d="M398.542 329.827L410.961 302.266C403.376 300.017 394.144 292.189 386.335 284.325C375.182 273.094 372.179 256.277 376.427 240.765L380.826 224.707C388.937 195.096 420.765 179.386 448.308 191.4L468.476 200.198C493.25 211.004 504.749 240.181 494.302 265.728L487.562 282.208C477.874 305.901 452.091 318.255 428.225 310.639L398.542 329.827Z" stroke="#0B6A85"/>
<path d="M424.86 241.04C424.162 242.576 422.047 245.461 419.167 244.721C419.286 244.915 419.057 245.036 417.188 243.968C414.851 242.632 417.051 233.892 422.115 229.805C427.179 225.718 434.467 228.325 437.975 229.716C441.483 231.107 443.523 238.733 443.328 242.112C443.133 245.49 436.713 250.453 435.358 251.33C434.273 252.031 431.024 260.094 429.535 264.038C429.049 265.301 427.663 267.769 426.006 267.539C423.934 267.252 423.495 264.69 423.137 264.108C422.779 263.527 429.155 248.022 432.137 246.094C435.119 244.166 433.969 239.218 432.179 236.309C430.39 233.4 426.681 236.611 425.689 236.845C424.895 237.033 424.805 239.72 424.86 241.04Z" stroke="#0B6A85"/>
<path d="M193.2 353.554L165.026 354.142L161.454 357.702C148.711 370.401 128.688 372.764 112.266 363.508C93.5671 352.968 84.9721 330.53 92.2285 311.197L93.6975 307.283C97.0264 298.415 103.091 290.942 111.049 285.902L113.727 284.206C129.532 274.198 150.641 276.421 165.159 289.624C180.587 303.654 184.351 326.195 174.111 343.239L193.2 353.554Z" stroke="#0B6A85"/>
<path d="M129.545 321.377C130.34 322.465 131.67 325.122 130.639 327.046C130.782 327.025 130.809 327.243 129.782 328.279C128.498 329.573 123.618 324.727 122.15 319.389C120.681 314.052 123.737 309.45 125.291 307.285C126.845 305.119 131.901 306.334 133.919 307.708C135.937 309.082 137.666 315.77 137.927 317.119C138.135 318.199 142.391 323.598 144.493 326.162C145.164 326.991 146.388 328.942 145.914 330.12C145.322 331.592 143.673 330.997 143.247 331.058C142.82 331.12 134.662 320.641 134.089 317.671C133.516 314.702 130.27 313.782 128.138 314.088C126.006 314.395 127.214 318.383 127.157 319.223C127.112 319.896 128.73 320.939 129.545 321.377Z" stroke="#0B6A85"/>
<path d="M339.157 367.023L313.652 325.566C297.406 336.862 267.272 355.465 249.917 365.149C242.131 369.493 234.126 366.156 229.605 357.703C218.926 337.736 198.395 299.719 180.528 268.786C173.271 256.221 176.566 240.324 188.137 233.365L300.453 165.822C311.359 159.264 325.763 163.016 333.335 174.388L385.062 252.067C393.091 264.125 390.443 280.163 379.191 287.626L340.957 312.986L339.157 367.023Z" stroke="#0B6A85"/>
<path d="M259.468 242.887C260.454 245.39 261.534 251.058 257.964 253.698C258.289 253.766 258.199 254.171 255.247 255.245C251.557 256.589 244.237 244.451 244.696 233.95C245.155 223.449 254.981 217.568 259.858 214.885C264.735 212.202 274.931 218.057 278.391 221.964C281.852 225.871 282.142 238.231 281.784 240.805C281.497 242.864 285.971 256.235 288.797 262.305C289.693 264.26 291.024 268.602 289.182 270.334C286.879 272.499 283.69 270.238 282.718 270.034C281.745 269.829 271.137 245.342 271.925 239.679C272.712 234.016 266.263 230.01 261.4 228.986C256.538 227.963 256.437 235.89 255.736 237.332C255.175 238.486 257.99 241.516 259.468 242.887Z" stroke="#0B6A85"/>
<path d="M313.448 416.468L275.084 433.438C272.063 455.048 261.013 479.696 259.239 482.071C257.465 484.446 194.732 461.328 159.826 452.713L190.242 335.852L288.587 369.475L281.99 411.029L313.448 416.468Z" stroke="#0B6A85"/>
<path d="M206.192 418.837C207.958 419.651 211.392 422.148 210.999 425.623C211.193 425.477 211.357 425.75 210.464 428.016C209.348 430.848 199.544 428.345 194.385 422.322C189.226 416.299 191.018 407.492 192.028 403.251C193.038 399.009 201.027 396.432 204.723 396.611C208.418 396.79 214.896 403.407 216.041 405.023C216.957 406.315 225.999 411.112 230.494 412.838C231.934 413.402 234.812 415.029 234.798 417.025C234.782 419.521 232.063 420.091 231.482 420.531C230.902 420.971 213.159 413.558 210.641 410.004C208.123 406.449 202.914 407.913 200.011 410.113C197.108 412.312 201.123 416.72 201.519 417.909C201.837 418.86 204.767 418.924 206.192 418.837Z" stroke="#0B6A85"/>
</svg>
