<svg width="531" height="505" viewBox="0 0 531 505" fill="none" xmlns="http://www.w3.org/2000/svg">
<circle opacity="0.1" cx="152.432" cy="390.432" r="93.0228" transform="rotate(-99.0016 152.432 390.432)" fill="#C4C4C4"/>
<path d="M337.5 334.5C324 339 318.164 342.233 297 346.553C275.836 350.873 228.885 351.212 222.623 352.435C216.36 353.658 210.526 350.304 207.841 353.736C205.157 357.167 207.62 363.253 206.035 364.892C204.45 366.531 201.364 371.067 194.32 371.72C187.275 372.373 182.932 362.423 177.534 363.278C172.136 364.133 164.472 367.429 163.182 367.286C161.891 367.144 158.538 364.899 159.371 363.611C160.205 362.323 164.155 357.418 163.248 356.059C162.34 354.699 153.596 359.9 152.676 357.733C151.756 355.566 154.568 355.121 154.746 356.249C154.889 357.151 155.521 361.137 155.819 363.017C155.728 363.417 155.368 364.245 154.648 364.359C153.748 364.502 147.032 361.403 145.828 359.628C144.865 358.207 144.45 352.869 144.363 350.377C144.891 349.831 146.106 348.575 146.74 347.919C147.533 347.1 158.931 342.635 160.96 341.619C162.99 340.604 164.506 335.622 167.032 333.372C169.558 331.122 177.686 330.759 177.867 334.084C178.047 337.409 171.789 343.026 173.616 346.553C175.443 350.079 181.222 350.899 182.122 350.756C183.021 350.614 188.973 340.882 190.77 343.488C192.566 346.095 206.775 358.646 211.611 357.88C216.447 357.114 226.597 354.234 227.593 356.157C228.39 357.696 229.289 362.981 229.639 365.431C229.579 369.18 229.175 376.768 228.034 377.134C226.608 377.591 210.596 373.305 207.447 373.804C204.297 374.303 195.221 373.774 190.914 376.423C186.607 379.071 166.025 375.046 161.248 375.456C156.471 375.866 155.66 376.572 155.374 374.767C155.088 372.962 155.893 372.951 154.892 371.722C154.09 370.738 153.583 371.466 153.43 371.953C153.912 372.571 154.856 373.971 154.776 374.631C154.696 375.291 152.695 375.076 151.704 374.886C147.549 372.191 139.105 366.821 138.565 366.907C137.891 367.014 136.756 363.493 140.486 363.018C144.215 362.543 144.818 361.985 146.985 362.567C149.153 363.148 154.418 365.09 154.543 365.879C154.643 366.511 155.235 365.885 155.519 365.493L173.887 362.815C173.759 361.525 173.576 358.817 173.864 358.309C174.225 357.673 177.868 353.743 177.127 352.704C176.534 351.872 170.351 359.174 167.333 362.928L162.267 364.424L162.648 361.01L183.615 333.983C184.34 332.982 185.57 330.898 184.689 330.575C183.808 330.252 177.31 340.031 174.171 344.962C174.401 345.927 175.164 347.88 176.376 347.966C177.892 348.073 180.397 348.601 180.793 348.191C181.189 347.781 189.182 330.557 189.704 330.937C190.121 331.241 185.64 340.215 183.347 344.664L183.687 346.808L193.19 330.385C193.893 329.001 194.863 325.957 193.119 324.845C191.376 323.734 186.929 327.252 184.924 329.15C184.607 329.085 183.718 328.809 182.703 328.23C181.436 327.506 141.726 305.349 141.642 304.09C141.575 303.083 138.71 304.748 137.286 305.705L107.069 352.932C106.953 353.413 106.767 354.668 106.953 355.841C107.139 357.014 108.138 358.467 108.614 359.047L167.563 392.033L189.214 405.717L190.89 411.928L171.166 438.064C170.856 438.537 170.538 439.921 171.738 441.674C173.237 443.865 184.293 452.521 185.289 454.445C186.286 456.368 186.939 459.04 186.183 460.085C185.426 461.13 180.181 461.5 176.656 452.343C173.13 443.186 165.018 416.72 164.003 414.683C162.989 412.647 157.634 402.857 155.939 401.622C154.245 400.387 149.721 399.484 148.548 398.63C147.61 397.946 144.063 393.365 142.407 391.161C141.127 391.325 138.614 392.247 138.805 394.622C139.045 397.591 140.818 400.779 142.193 402.18C143.568 403.581 146.555 407.156 147.562 407.69C148.569 408.224 151.641 415.802 153.43 416.906C155.219 418.01 158.156 422.895 159.049 421.25C159.762 419.934 147.054 410.546 140.61 406.016L130.258 395.976C128.5 394.5 128.795 394.622 128.795 395.348C128.795 396.649 125.35 399.737 127 398.5C129 397 130.769 397.746 126.05 390.514C122.274 384.729 118.96 381.422 117.775 380.492C116.821 379.564 113.391 378.685 112.691 380.091C111.817 381.848 114.454 386.453 115.868 385.189C116.999 384.177 117.903 383.483 116.349 380.949C114.795 378.416 110.927 379.565 111.554 381.246C112.181 382.928 117.599 396.409 119.012 397.758C120.424 399.107 128.37 410.499 132.166 416.026C132.936 416.521 134.515 417.319 134.671 416.555C134.865 415.599 117.048 399.919 113.341 392.527C110.375 386.614 106.198 382.365 104.479 380.98C103.696 380.641 100.986 381.103 100.168 382.343C99.1454 383.893 100.01 387.701 102.035 387.38C104.059 387.059 104.627 384.856 103.119 382.583C101.407 380 98.8047 383.729 99.8495 386.685C100.123 387.461 105.072 395.915 108.086 400.14C109.278 401.812 111.337 405.679 112.815 405.215C113.5 405 114.5 403 114 402.5C113.871 402.371 113.088 401.826 112 402.5C110.811 403.237 110.964 403.709 111.603 405.407C113.351 408.599 117.165 413.636 117.995 415.265C119.126 417.484 120.586 419.827 121.474 421.305C121.828 422.328 122.689 424.466 123.301 424.832C124.065 425.289 126.291 425.514 125.591 424.006C124.891 422.498 112.691 411.711 110.32 408.386C107.948 405.061 105.688 394.433 103 393.472C102.327 393.231 99.8023 392.937 99.5133 394.024C99.2242 395.11 99.6836 398.738 101.164 398.619C102.643 398.501 103.239 396.44 102.836 395.348C102.432 394.255 101.484 393.365 100.922 393.454C100.359 393.543 98.3529 393.976 98.746 396.458C99.1392 398.94 105.189 413.499 107.088 415.861C108.618 417.765 111.258 417.951 111.121 416.354C111.01 415.076 109.708 414.958 109.071 415.059C108.521 415.224 107.463 415.823 107.634 416.906C107.849 418.26 120.831 429.617 121.063 431.084C121.295 432.55 120.899 432.96 120.301 432.823C119.823 432.714 110.793 422.534 106.338 417.458C104.516 414.933 100.58 409.929 99.4106 410.114C97.9485 410.346 95.3209 411.224 95.5532 412.691C95.7855 414.157 99.6776 416.894 100.358 416.093C101.038 415.291 100.277 411.943 99.7143 412.032C99.152 412.121 98.7127 410.803 98.0557 411.022C97.3988 411.242 95.7781 412.655 95.6551 414.062C95.5568 415.188 99.5236 420.773 101.519 423.425L110.675 433.192L127.874 446.425C135.056 450.761 150.406 460.572 154.355 465.127C159.292 470.821 178.716 489.368 182.668 486.66C185.83 484.494 180.97 476.908 178.144 473.385C174.338 471.675 166.294 468.301 164.571 468.481C162.416 468.707 156.11 473.291 151.013 473.867C145.916 474.443 67.9029 427.363 67.9679 421.224C68.02 416.312 89.2535 381.657 99.8638 364.943C101.905 365.699 106.045 367.572 106.273 369.016C106.502 370.46 105.409 372.776 104.833 373.754L99.4256 370.91" stroke="#0B6A85"/>
<path d="M379.5 303C293.987 317.687 95.8418 278.16 55.8554 231.989C6.49997 175 -36.0007 65 155 65.0002C233.5 65.0002 423.313 85.8074 467 159C562.5 319 413 303 337.5 334.5" stroke="#0B6A85"/>
</svg>
