<svg width="356" height="351" viewBox="0 0 356 351" fill="none" xmlns="http://www.w3.org/2000/svg">
<circle opacity="0.1" cx="179.5" cy="175.5" r="175.5" fill="#C4C4C4"/>
<path d="M166.355 244.927C166.355 267.98 173 267.362 173 267.362C174.058 267.362 174.905 267.758 175.76 267.362M175.76 267.362C182.393 264.286 183.248 254 183.248 248.769V233.948C183.248 232.851 182.5 224.068 175.619 224.068C169.096 224.068 165.368 261.922 175.76 267.362ZM175.76 267.362C176.688 267.847 177.728 268.07 178.889 267.98C190.223 267.102 194.147 261.76 194.691 259.198C195.055 257.551 195.781 253.599 195.781 250.964C195.781 247.671 195.781 229.557 192.512 225.166C189.896 221.653 188 219.128 181 219.128H175.619C171.59 219.5 168.5 222.5 167.5 225.166C166.177 228.694 165.266 235.229 165.266 238.34L161.451 246.573L154.912 244.927L160.361 236.693C160.18 229.74 161.124 214.956 166.355 211.443C171.587 207.93 176.891 207.052 178.889 207.052C183.611 207.235 193.602 209.687 195.781 218.03C197.961 226.374 199.232 239.437 199.596 244.927C216.125 245.475 249.728 246.244 251.908 244.927C253.75 243.814 276.463 241.578 292.777 240.138M292.777 240.138C295.774 239.874 298.555 239.636 300.951 239.437C304.947 231.753 312.939 215.286 312.939 210.895C312.939 205.405 313.484 204.857 311.305 199.916C309.561 195.964 290.234 179.241 280.789 171.373L245.369 125.266L226.842 88.489C221.029 86.6594 205.481 83 189.787 83C170.17 83 140.199 84.0978 135.84 85.1956C132.352 86.0739 87.1602 97.2715 65 102.761V192.781H83.5274V226.264H91.1563C90.793 219.311 91.2652 205.515 96.0606 205.954C102.055 206.503 103.145 216.932 103.145 222.421C103.145 227.911 104.234 198.819 94.9707 198.819C87.5598 198.819 87.5234 211.626 88.4316 218.03C86.9785 211.443 85.2711 197.721 90.0664 195.525C94.8617 193.33 99.3301 194.61 100.965 195.525C102.963 197.721 106.85 204.857 106.414 215.835C105.869 229.557 104.779 235.046 99.875 235.046C95.9516 235.046 93.1543 230.655 92.2461 228.459V235.046C92.791 236.144 94.3168 238.34 96.0606 238.34H118.402C120.037 235.595 123.307 229.338 123.307 226.264V219.677H109.684L127.121 216.932L123.307 200.465H130.936C129.119 193.878 125.813 174.886 127.121 151.613C128.429 128.339 134.205 102.029 136.93 91.7825C135.658 101.846 133.66 122.192 135.84 123.07C138.02 123.948 207.951 124.9 242.645 125.266C210.313 126.93 145.43 129.59 144.559 126.912C143.469 123.565 135.84 153.809 135.84 178.509C135.84 198.27 138.383 220.775 139.654 229.557L156.002 232.851C155.639 230.838 155.13 225.934 156.002 222.421C156.874 218.908 159.998 215.469 161.451 214.188L144.559 211.443C143.65 209.248 141.725 203.649 141.289 198.819C140.853 193.988 141.107 190.585 141.289 189.487C148.01 190.951 162.759 193.879 167.99 193.879C173.222 193.879 189.061 194.61 196.326 194.976L141.289 183.449L151.643 136.793C154.549 135.878 161.124 134.597 164.176 136.793C167.99 139.537 178.889 152.711 178.889 162.591V175.216L169.08 174.118L166.355 158.749C166.537 157.468 164.176 154.906 161.996 154.906C159.272 154.906 154.912 164.238 154.912 170.825C154.912 177.411 159.816 180.156 161.996 180.156H167.99V178.509L184.883 180.156C199.777 177.777 232.727 173.02 245.369 173.02H276.43L302.041 194.976L234.471 203.21L221.938 193.879C220.484 192.964 216.815 191.244 213.764 191.683C210.712 192.122 209.949 197.355 209.949 199.916V207.052C210.494 207.967 212.02 210.126 213.764 211.443C215.943 213.09 223.572 215.286 226.842 215.286H235.561C237.922 215.103 242.645 214.408 242.645 213.09C242.645 211.773 239.012 207.784 237.195 205.954L299.861 198.819L293.867 204.308C292.414 205.771 289.944 209.138 291.687 210.895C293.867 213.09 307.49 210.346 308.035 208.699C308.471 207.382 310.397 205.223 311.305 204.308C310.033 210.529 306.727 223.958 303.676 227.911C300.624 231.863 295.139 235.412 292.777 236.693V240.138ZM292.777 240.138V246.573C292.596 250.781 289.944 259.198 280.789 259.198C271.634 259.198 266.076 252.245 264.441 248.769C265.531 254.075 270.327 264.577 280.789 264.138C291.252 263.699 291.144 260 292.777 257C294.41 254 293.867 240.042 293.867 240.042" stroke="#0B6A85"/>
<path d="M234 261.641L355.708 296.306" stroke="#0B6A85" stroke-dasharray="24 24"/>
<path d="M0.999977 180L65.8066 203.241" stroke="#0B6A85" stroke-dasharray="7 7"/>
</svg>
