<svg width="1440" height="266" viewBox="0 0 1440 266" fill="none" xmlns="http://www.w3.org/2000/svg">
<ellipse opacity="0.1" cx="1272" cy="152.165" rx="115" ry="113" fill="#C4C4C4"/>
<path d="M1919.67 186.619C1920.14 183.587 1918.65 177.887 1909 179.343C1896.94 181.162 1356.63 167.973 1353.38 167.518C1350.78 167.154 1347.35 169.186 1345.96 170.247C1346.11 167.67 1345.96 162.061 1344.1 160.242C1341.78 157.968 1306.98 160.696 1285.63 160.696C1264.29 160.696 1242.94 159.787 1207.68 157.513C1179.46 155.694 1166.53 157.058 1163.59 157.968C1162.36 158.119 1162.29 159.059 1171.95 161.606C1184.01 164.789 1311.62 167.518 1331.57 163.425C1351.52 159.332 1348.74 149.781 1349.67 147.053C1350.6 144.324 1349.67 142.05 1347.35 140.231C1345.03 138.412 1314.4 138.412 1314.87 141.141C1315.24 143.324 1320.9 143.263 1323.68 142.96C1330.02 141.899 1343.17 139.503 1345.03 138.412C1347.35 137.047 1346.88 132.5 1347.35 128.407C1347.81 124.313 1345.96 120.675 1344.56 119.311C1343.45 118.219 1339.15 118.25 1337.14 118.401C1331.11 119.008 1317.93 119.402 1313.47 116.127C1307.91 112.034 1306.98 98.8455 1306.98 96.5715C1306.98 94.2976 1311.15 86.5663 1308.37 82.928C1305.59 79.2897 1301.41 82.0184 1299.09 78.8349C1296.77 75.6514 1297.7 26.9893 1294.91 26.9893C1292.13 26.9893 1290.74 74.7418 1289.81 82.928C1288.88 91.1141 1292.13 92.0237 1293.98 92.0237C1295.84 92.0237 1297.7 92.0237 1302.8 88.8402C1306.88 86.2934 1301.1 85.0503 1297.7 84.7471C1293.37 84.1407 1284.89 84.7471 1285.63 92.0237C1286.56 101.119 1276.35 141.141 1274.5 141.141C1273.01 141.141 1272.95 135.38 1273.57 132.5C1274.8 119.462 1280.44 93.479 1293.06 93.8428C1308.83 94.2976 1312.08 132.5 1312.55 136.593C1313.01 140.686 1311.62 140.231 1309.76 141.141C1307.91 142.05 1264.29 142.05 1262.89 141.141C1261.5 140.231 1261.97 140.686 1261.5 137.502C1261.04 134.319 1257.33 134.319 1256.86 133.864C1256.4 133.409 1232.73 130.68 1226.24 129.771C1221.04 129.043 1217.27 129.468 1216.03 129.771C1215.1 130.984 1215.84 133.5 1226.24 133.864C1239.23 134.319 1243.87 131.59 1244.8 130.68C1245.73 129.771 1244.8 123.859 1244.8 121.585C1244.8 119.311 1244.8 118.401 1243.87 117.492C1243.13 116.764 1241.7 116.582 1241.09 116.582C1238.61 116.431 1233.2 116.127 1231.34 116.127C1229.02 116.127 1227.16 115.673 1226.24 114.763C1225.31 113.853 1224.84 111.579 1224.84 108.396C1224.84 105.212 1224.38 102.029 1222.06 98.8455C1219.74 95.662 1214.64 93.388 1208.14 93.388C1201.64 93.388 1196.07 91.1141 1195.15 90.2045C1194.4 89.4769 1194.22 88.0822 1194.22 87.4758C1194.68 74.7418 1195.52 48.819 1195.15 46.9999C1194.68 44.726 1196.07 36.085 1195.61 33.3563C1195.15 30.6276 1187.26 29.2632 1187.26 27.8989C1187.26 26.8074 1191.9 26.8377 1194.22 26.9893C1196.38 27.2925 1200.72 28.0808 1200.72 28.8084C1200.72 29.718 1199.32 29.2632 1196.07 29.2632C1193.48 29.2632 1192.83 27.1409 1192.83 26.0797C1192.98 22.1383 1193.38 13.0728 1193.75 8.34307C1194.22 2.43086 1195.61 0.611714 1197 1.0665C1198.4 1.52129 1197.93 3.79522 1196.54 5.61436C1195.15 7.4335 1185.87 8.34307 1185.87 9.25265C1185.87 10.1622 1189.58 11.5266 1194.22 12.4361C1198.86 13.3457 1202.57 11.5266 1202.57 10.1622C1202.57 8.79786 1200.72 8.79786 1197.93 8.79786C1195.7 8.79786 1195.15 10.617 1195.15 11.5266C1192.52 38.8137 1187.63 94.0247 1189.11 96.5715C1190.6 99.1183 1192.83 97.9359 1193.75 97.0263C1194.53 94.904 1194.78 90.2954 1189.58 88.8401C1183.08 87.021 1178.91 91.1141 1177.05 92.9332C1175.19 94.7524 1175.19 100.21 1175.19 103.848C1175.19 106.759 1173.96 106.577 1173.34 106.122L1170.55 102.938C1170.09 102.181 1169.72 100.937 1171.95 102.029C1174.73 103.393 1211.85 99.755 1213.71 99.755C1215.19 99.755 1215.87 101.877 1216.03 102.938C1216.34 102.938 1216.68 103.939 1215.56 107.941C1214.17 112.944 1186.79 112.944 1178.44 112.944C1170.09 112.944 1168.23 110.67 1168.23 110.215C1168.23 109.851 1169.78 109.76 1170.55 109.76L1210.46 108.851C1211.85 109.002 1214.82 109.487 1215.56 110.215C1216.31 110.943 1216.49 111.731 1216.49 112.034C1216.49 114.308 1216.49 119.311 1216.49 121.13C1216.49 123.404 1215.56 126.587 1212.32 128.861C1209.07 131.135 1203.04 130.68 1197 130.226C1190.97 129.771 1180.76 128.406 1178.91 127.042C1177.05 125.678 1177.98 124.313 1177.51 123.404C1177.05 122.494 1169.16 122.494 1167.77 122.494C1166.38 122.494 1166.38 123.404 1165.91 123.859C1165.54 124.222 1164.21 124.92 1163.59 125.223C1161.27 125.223 1156.35 125.041 1155.24 124.313C1153.85 123.404 1155.24 122.039 1154.31 121.13C1153.38 120.22 1148.74 120.675 1147.35 120.675C1145.96 120.675 1146.42 122.949 1145.5 123.404C1144.57 123.859 1139.93 123.404 1139 122.949C1138.26 122.585 1138.69 120.978 1139 120.22L1128.79 119.766C1128.79 120.675 1128.88 122.585 1129.25 122.949C1129.63 123.313 1132.19 124.01 1133.43 124.313L1179.83 131.59C1182.31 131.742 1187.63 131.954 1189.11 131.59C1190.97 131.135 1191.43 123.859 1190.97 122.949C1190.51 122.039 1188.65 122.039 1187.72 121.585C1186.98 121.221 1175.04 119.917 1169.16 119.311L1124.61 117.037L1123.69 122.494C1124.3 123.252 1126.66 125.587 1131.11 128.861C1136.68 132.954 1139.46 143.869 1140.39 146.143C1141.32 148.417 1141.32 152.965 1141.32 157.968C1141.32 162.97 1140.39 168.428 1139 172.066C1137.61 175.704 1134.82 176.614 1133.9 176.614C1132.97 176.614 1131.57 176.159 1130.18 175.249C1128.79 174.34 1122.29 169.792 1119.51 168.428C1117.28 167.336 1111.47 167.973 1108.84 168.428C1108.84 168.428 934.187 212.542 856.5 179.343C778.813 146.143 611.625 161.758 540.5 176.614C469.375 191.47 134.177 294.767 -29 257.165" stroke="#0B6A85"/>
</svg>
