<svg width="70" height="31" viewBox="0 0 70 31" fill="none" xmlns="http://www.w3.org/2000/svg">
<mask id="path-1-outside-1_1006_2" maskUnits="userSpaceOnUse" x="20.5105" y="12.8015" width="16" height="18" fill="black">
<rect fill="white" x="20.5105" y="12.8015" width="16" height="18"/>
<path d="M28.2819 23.7647C29.0079 23.4649 29.7282 23.1552 30.4427 22.8357C31.1571 22.5162 31.858 22.1769 32.5454 21.8179C32.9326 21.599 33.3102 21.3791 33.6781 21.1582C34.046 20.9373 34.4235 20.7173 34.8108 20.4984L35.1332 20.3032C35.2513 20.2341 35.3684 20.1592 35.4846 20.0783C35.6007 19.9974 35.7479 19.9077 35.926 19.8091C36.1797 19.8505 36.199 19.9402 35.9841 20.0783L35.7198 20.2588C35.3326 20.4797 34.9357 20.7144 34.529 20.9629C34.1224 21.2114 33.7255 21.4461 33.3383 21.667L32.4408 22.1463C32.1369 22.3061 31.828 22.456 31.5144 22.596C31.0439 22.8169 30.5734 23.0319 30.1029 23.241C29.6324 23.4501 29.1725 23.666 28.7233 23.8889C28.6246 23.9284 28.5365 23.9678 28.459 24.0073L28.2238 24.1286C28.096 24.1759 27.9916 24.2726 27.9333 24.3978C27.6584 24.8968 27.3738 25.381 27.0795 25.8504C26.7852 26.3199 26.4715 26.7844 26.1385 27.2439C25.8248 27.6384 25.4966 28.0181 25.1539 28.383C24.8061 28.7462 24.427 29.0769 24.0212 29.3711C23.7263 29.5704 23.4107 29.7361 23.0802 29.8652C22.7983 29.9723 22.4871 29.967 22.2089 29.8504C21.9541 29.7544 21.7459 29.5613 21.6281 29.312C21.5023 29.0624 21.4763 28.7729 21.5554 28.5043C21.7018 27.9735 22.0062 27.5021 22.4267 27.1552C22.8682 26.7765 23.2845 26.4471 23.6756 26.167C24.0086 25.9481 24.362 25.738 24.7357 25.5368C25.1094 25.3357 25.4821 25.1463 25.8538 24.9688L27.7068 24.0812C27.7487 24.0684 27.7868 24.0452 27.8177 24.0137C27.8486 23.9822 27.8714 23.9434 27.884 23.9007C28.2535 23.2073 28.5823 22.492 28.8685 21.7588C29.1523 21.0306 29.3929 20.2856 29.5888 19.528C29.6469 19.2479 29.7108 18.9284 29.7805 18.5694C29.844 18.2539 29.878 17.933 29.8821 17.6109C29.7201 17.7557 29.5723 17.9162 29.4407 18.0902C29.3039 18.2689 29.1565 18.4388 28.9992 18.599C28.6855 18.9777 28.3816 19.3525 28.0873 19.7233C27.793 20.0941 27.5025 20.459 27.216 20.8179C26.7842 21.3367 26.3524 21.8406 25.9206 22.3298C25.4889 22.8189 25.0377 23.2933 24.5672 23.7528C24.2729 24.0329 23.9544 24.3081 23.6117 24.5783C23.3189 24.8291 22.9515 24.9719 22.5691 24.9836C22.43 25.0006 22.289 24.9758 22.1636 24.9122C22.0382 24.8486 21.9338 24.749 21.8633 24.6256C21.6687 24.2909 21.5766 23.9045 21.599 23.5161C21.6174 23.1345 21.6571 22.7542 21.7181 22.3771C21.953 21.2407 22.3135 20.135 22.7927 19.0813C23.2662 18.0078 23.8744 17.0013 24.6021 16.0872C24.9453 15.6372 25.319 15.2121 25.7202 14.815C26.1104 14.4179 26.5827 14.1147 27.1027 13.9275C27.3398 13.8253 27.5979 13.7843 27.8542 13.8081C28.1105 13.8318 28.3572 13.9196 28.5723 14.0636C28.768 14.1951 28.9363 14.3647 29.0674 14.5627C29.1985 14.7608 29.2898 14.9833 29.3361 15.2174C29.4144 15.571 29.4243 15.9368 29.3652 16.2943C29.3657 16.3499 29.3608 16.4054 29.3506 16.46C29.3392 16.516 29.3246 16.5713 29.3071 16.6257C29.3071 16.7647 29.2664 16.815 29.1909 16.7766C29.1154 16.7381 29.0718 16.7056 29.0718 16.5665L29.159 15.8476C29.1621 15.5894 29.1278 15.3322 29.0573 15.0843C28.9749 14.8339 28.8274 14.611 28.6304 14.4393C28.4262 14.2736 28.1828 14.1654 27.9246 14.1257C27.6927 14.0953 27.4571 14.1155 27.2334 14.1849C26.9998 14.2584 26.777 14.3639 26.5712 14.4985C26.3664 14.6327 26.1721 14.7831 25.9903 14.9482C25.1836 15.7395 24.4816 16.6346 23.9021 17.6109C23.3535 18.5481 22.8814 19.5297 22.4906 20.5458C22.4132 20.7844 22.3251 21.099 22.2263 21.4895C22.1276 21.8801 22.0492 22.2696 21.9911 22.6582C21.9345 23.0201 21.9102 23.3864 21.9185 23.7528C21.8987 24.0133 21.9731 24.2721 22.1276 24.4806C22.1802 24.5663 22.2591 24.6319 22.352 24.6673C22.445 24.7026 22.5468 24.7056 22.6417 24.6759C22.8871 24.6188 23.121 24.5187 23.3329 24.38C23.5681 24.2309 23.7897 24.0606 23.9951 23.8712C24.2003 23.6739 24.3426 23.5388 24.422 23.4658C24.8344 23.0714 25.2217 22.667 25.5837 22.2528C25.9458 21.8386 26.304 21.4146 26.6583 20.9807C27.0301 20.5605 27.3883 20.1316 27.7329 19.6937C28.0776 19.2558 28.4251 18.816 28.7756 18.3742C28.9324 18.1947 29.0893 17.9975 29.2461 17.7825C29.3847 17.5881 29.5656 17.4292 29.7747 17.318C29.812 17.2895 29.8555 17.2706 29.9015 17.2629C29.9475 17.2552 29.9946 17.2588 30.039 17.2736C30.1174 17.3032 30.158 17.3772 30.158 17.4985C30.154 17.8051 30.1249 18.1109 30.0709 18.4126C30.0128 18.7617 29.9393 19.1266 29.8502 19.5073C29.7611 19.888 29.6604 20.2637 29.5481 20.6345C29.4386 20.9903 29.3106 21.3399 29.1648 21.6818C29.0079 22.0211 28.8559 22.3653 28.7088 22.7144C28.5616 23.0635 28.4193 23.4136 28.2819 23.7647ZM27.5761 24.4806C27.2836 24.5796 26.9983 24.6992 26.7222 24.8386C26.4473 24.9787 26.1733 25.1088 25.9003 25.2292C25.4879 25.4501 25.0861 25.6601 24.695 25.8593C24.2931 26.065 23.9093 26.3055 23.5478 26.5783C23.1954 26.8386 22.8324 27.1345 22.4587 27.4658C22.1079 27.7582 21.8685 28.1664 21.782 28.6196C21.7589 28.7454 21.7628 28.8748 21.7934 28.9989C21.8239 29.1229 21.8805 29.2388 21.9591 29.3386C22.0322 29.434 22.1262 29.5105 22.2337 29.5619C22.3412 29.6133 22.4591 29.6381 22.5778 29.6344C22.7756 29.656 22.9757 29.6255 23.1586 29.5457C23.331 29.4678 23.498 29.3778 23.6582 29.2764C23.9819 29.064 24.287 28.8234 24.5701 28.5575C24.849 28.2932 25.1137 28.0137 25.363 27.7202C25.8024 27.2357 26.2007 26.7141 26.5538 26.1611C26.8945 25.6226 27.2353 25.0625 27.5761 24.4806Z"/>
</mask>
<path d="M28.2819 23.7647C29.0079 23.4649 29.7282 23.1552 30.4427 22.8357C31.1571 22.5162 31.858 22.1769 32.5454 21.8179C32.9326 21.599 33.3102 21.3791 33.6781 21.1582C34.046 20.9373 34.4235 20.7173 34.8108 20.4984L35.1332 20.3032C35.2513 20.2341 35.3684 20.1592 35.4846 20.0783C35.6007 19.9974 35.7479 19.9077 35.926 19.8091C36.1797 19.8505 36.199 19.9402 35.9841 20.0783L35.7198 20.2588C35.3326 20.4797 34.9357 20.7144 34.529 20.9629C34.1224 21.2114 33.7255 21.4461 33.3383 21.667L32.4408 22.1463C32.1369 22.3061 31.828 22.456 31.5144 22.596C31.0439 22.8169 30.5734 23.0319 30.1029 23.241C29.6324 23.4501 29.1725 23.666 28.7233 23.8889C28.6246 23.9284 28.5365 23.9678 28.459 24.0073L28.2238 24.1286C28.096 24.1759 27.9916 24.2726 27.9333 24.3978C27.6584 24.8968 27.3738 25.381 27.0795 25.8504C26.7852 26.3199 26.4715 26.7844 26.1385 27.2439C25.8248 27.6384 25.4966 28.0181 25.1539 28.383C24.8061 28.7462 24.427 29.0769 24.0212 29.3711C23.7263 29.5704 23.4107 29.7361 23.0802 29.8652C22.7983 29.9723 22.4871 29.967 22.2089 29.8504C21.9541 29.7544 21.7459 29.5613 21.6281 29.312C21.5023 29.0624 21.4763 28.7729 21.5554 28.5043C21.7018 27.9735 22.0062 27.5021 22.4267 27.1552C22.8682 26.7765 23.2845 26.4471 23.6756 26.167C24.0086 25.9481 24.362 25.738 24.7357 25.5368C25.1094 25.3357 25.4821 25.1463 25.8538 24.9688L27.7068 24.0812C27.7487 24.0684 27.7868 24.0452 27.8177 24.0137C27.8486 23.9822 27.8714 23.9434 27.884 23.9007C28.2535 23.2073 28.5823 22.492 28.8685 21.7588C29.1523 21.0306 29.3929 20.2856 29.5888 19.528C29.6469 19.2479 29.7108 18.9284 29.7805 18.5694C29.844 18.2539 29.878 17.933 29.8821 17.6109C29.7201 17.7557 29.5723 17.9162 29.4407 18.0902C29.3039 18.2689 29.1565 18.4388 28.9992 18.599C28.6855 18.9777 28.3816 19.3525 28.0873 19.7233C27.793 20.0941 27.5025 20.459 27.216 20.8179C26.7842 21.3367 26.3524 21.8406 25.9206 22.3298C25.4889 22.8189 25.0377 23.2933 24.5672 23.7528C24.2729 24.0329 23.9544 24.3081 23.6117 24.5783C23.3189 24.8291 22.9515 24.9719 22.5691 24.9836C22.43 25.0006 22.289 24.9758 22.1636 24.9122C22.0382 24.8486 21.9338 24.749 21.8633 24.6256C21.6687 24.2909 21.5766 23.9045 21.599 23.5161C21.6174 23.1345 21.6571 22.7542 21.7181 22.3771C21.953 21.2407 22.3135 20.135 22.7927 19.0813C23.2662 18.0078 23.8744 17.0013 24.6021 16.0872C24.9453 15.6372 25.319 15.2121 25.7202 14.815C26.1104 14.4179 26.5827 14.1147 27.1027 13.9275C27.3398 13.8253 27.5979 13.7843 27.8542 13.8081C28.1105 13.8318 28.3572 13.9196 28.5723 14.0636C28.768 14.1951 28.9363 14.3647 29.0674 14.5627C29.1985 14.7608 29.2898 14.9833 29.3361 15.2174C29.4144 15.571 29.4243 15.9368 29.3652 16.2943C29.3657 16.3499 29.3608 16.4054 29.3506 16.46C29.3392 16.516 29.3246 16.5713 29.3071 16.6257C29.3071 16.7647 29.2664 16.815 29.1909 16.7766C29.1154 16.7381 29.0718 16.7056 29.0718 16.5665L29.159 15.8476C29.1621 15.5894 29.1278 15.3322 29.0573 15.0843C28.9749 14.8339 28.8274 14.611 28.6304 14.4393C28.4262 14.2736 28.1828 14.1654 27.9246 14.1257C27.6927 14.0953 27.4571 14.1155 27.2334 14.1849C26.9998 14.2584 26.777 14.3639 26.5712 14.4985C26.3664 14.6327 26.1721 14.7831 25.9903 14.9482C25.1836 15.7395 24.4816 16.6346 23.9021 17.6109C23.3535 18.5481 22.8814 19.5297 22.4906 20.5458C22.4132 20.7844 22.3251 21.099 22.2263 21.4895C22.1276 21.8801 22.0492 22.2696 21.9911 22.6582C21.9345 23.0201 21.9102 23.3864 21.9185 23.7528C21.8987 24.0133 21.9731 24.2721 22.1276 24.4806C22.1802 24.5663 22.2591 24.6319 22.352 24.6673C22.445 24.7026 22.5468 24.7056 22.6417 24.6759C22.8871 24.6188 23.121 24.5187 23.3329 24.38C23.5681 24.2309 23.7897 24.0606 23.9951 23.8712C24.2003 23.6739 24.3426 23.5388 24.422 23.4658C24.8344 23.0714 25.2217 22.667 25.5837 22.2528C25.9458 21.8386 26.304 21.4146 26.6583 20.9807C27.0301 20.5605 27.3883 20.1316 27.7329 19.6937C28.0776 19.2558 28.4251 18.816 28.7756 18.3742C28.9324 18.1947 29.0893 17.9975 29.2461 17.7825C29.3847 17.5881 29.5656 17.4292 29.7747 17.318C29.812 17.2895 29.8555 17.2706 29.9015 17.2629C29.9475 17.2552 29.9946 17.2588 30.039 17.2736C30.1174 17.3032 30.158 17.3772 30.158 17.4985C30.154 17.8051 30.1249 18.1109 30.0709 18.4126C30.0128 18.7617 29.9393 19.1266 29.8502 19.5073C29.7611 19.888 29.6604 20.2637 29.5481 20.6345C29.4386 20.9903 29.3106 21.3399 29.1648 21.6818C29.0079 22.0211 28.8559 22.3653 28.7088 22.7144C28.5616 23.0635 28.4193 23.4136 28.2819 23.7647ZM27.5761 24.4806C27.2836 24.5796 26.9983 24.6992 26.7222 24.8386C26.4473 24.9787 26.1733 25.1088 25.9003 25.2292C25.4879 25.4501 25.0861 25.6601 24.695 25.8593C24.2931 26.065 23.9093 26.3055 23.5478 26.5783C23.1954 26.8386 22.8324 27.1345 22.4587 27.4658C22.1079 27.7582 21.8685 28.1664 21.782 28.6196C21.7589 28.7454 21.7628 28.8748 21.7934 28.9989C21.8239 29.1229 21.8805 29.2388 21.9591 29.3386C22.0322 29.434 22.1262 29.5105 22.2337 29.5619C22.3412 29.6133 22.4591 29.6381 22.5778 29.6344C22.7756 29.656 22.9757 29.6255 23.1586 29.5457C23.331 29.4678 23.498 29.3778 23.6582 29.2764C23.9819 29.064 24.287 28.8234 24.5701 28.5575C24.849 28.2932 25.1137 28.0137 25.363 27.7202C25.8024 27.2357 26.2007 26.7141 26.5538 26.1611C26.8945 25.6226 27.2353 25.0625 27.5761 24.4806Z" fill="#0B6A85"/>
<path d="M28.2819 23.7647C29.0079 23.4649 29.7282 23.1552 30.4427 22.8357C31.1571 22.5162 31.858 22.1769 32.5454 21.8179C32.9326 21.599 33.3102 21.3791 33.6781 21.1582C34.046 20.9373 34.4235 20.7173 34.8108 20.4984L35.1332 20.3032C35.2513 20.2341 35.3684 20.1592 35.4846 20.0783C35.6007 19.9974 35.7479 19.9077 35.926 19.8091C36.1797 19.8505 36.199 19.9402 35.9841 20.0783L35.7198 20.2588C35.3326 20.4797 34.9357 20.7144 34.529 20.9629C34.1224 21.2114 33.7255 21.4461 33.3383 21.667L32.4408 22.1463C32.1369 22.3061 31.828 22.456 31.5144 22.596C31.0439 22.8169 30.5734 23.0319 30.1029 23.241C29.6324 23.4501 29.1725 23.666 28.7233 23.8889C28.6246 23.9284 28.5365 23.9678 28.459 24.0073L28.2238 24.1286C28.096 24.1759 27.9916 24.2726 27.9333 24.3978C27.6584 24.8968 27.3738 25.381 27.0795 25.8504C26.7852 26.3199 26.4715 26.7844 26.1385 27.2439C25.8248 27.6384 25.4966 28.0181 25.1539 28.383C24.8061 28.7462 24.427 29.0769 24.0212 29.3711C23.7263 29.5704 23.4107 29.7361 23.0802 29.8652C22.7983 29.9723 22.4871 29.967 22.2089 29.8504C21.9541 29.7544 21.7459 29.5613 21.6281 29.312C21.5023 29.0624 21.4763 28.7729 21.5554 28.5043C21.7018 27.9735 22.0062 27.5021 22.4267 27.1552C22.8682 26.7765 23.2845 26.4471 23.6756 26.167C24.0086 25.9481 24.362 25.738 24.7357 25.5368C25.1094 25.3357 25.4821 25.1463 25.8538 24.9688L27.7068 24.0812C27.7487 24.0684 27.7868 24.0452 27.8177 24.0137C27.8486 23.9822 27.8714 23.9434 27.884 23.9007C28.2535 23.2073 28.5823 22.492 28.8685 21.7588C29.1523 21.0306 29.3929 20.2856 29.5888 19.528C29.6469 19.2479 29.7108 18.9284 29.7805 18.5694C29.844 18.2539 29.878 17.933 29.8821 17.6109C29.7201 17.7557 29.5723 17.9162 29.4407 18.0902C29.3039 18.2689 29.1565 18.4388 28.9992 18.599C28.6855 18.9777 28.3816 19.3525 28.0873 19.7233C27.793 20.0941 27.5025 20.459 27.216 20.8179C26.7842 21.3367 26.3524 21.8406 25.9206 22.3298C25.4889 22.8189 25.0377 23.2933 24.5672 23.7528C24.2729 24.0329 23.9544 24.3081 23.6117 24.5783C23.3189 24.8291 22.9515 24.9719 22.5691 24.9836C22.43 25.0006 22.289 24.9758 22.1636 24.9122C22.0382 24.8486 21.9338 24.749 21.8633 24.6256C21.6687 24.2909 21.5766 23.9045 21.599 23.5161C21.6174 23.1345 21.6571 22.7542 21.7181 22.3771C21.953 21.2407 22.3135 20.135 22.7927 19.0813C23.2662 18.0078 23.8744 17.0013 24.6021 16.0872C24.9453 15.6372 25.319 15.2121 25.7202 14.815C26.1104 14.4179 26.5827 14.1147 27.1027 13.9275C27.3398 13.8253 27.5979 13.7843 27.8542 13.8081C28.1105 13.8318 28.3572 13.9196 28.5723 14.0636C28.768 14.1951 28.9363 14.3647 29.0674 14.5627C29.1985 14.7608 29.2898 14.9833 29.3361 15.2174C29.4144 15.571 29.4243 15.9368 29.3652 16.2943C29.3657 16.3499 29.3608 16.4054 29.3506 16.46C29.3392 16.516 29.3246 16.5713 29.3071 16.6257C29.3071 16.7647 29.2664 16.815 29.1909 16.7766C29.1154 16.7381 29.0718 16.7056 29.0718 16.5665L29.159 15.8476C29.1621 15.5894 29.1278 15.3322 29.0573 15.0843C28.9749 14.8339 28.8274 14.611 28.6304 14.4393C28.4262 14.2736 28.1828 14.1654 27.9246 14.1257C27.6927 14.0953 27.4571 14.1155 27.2334 14.1849C26.9998 14.2584 26.777 14.3639 26.5712 14.4985C26.3664 14.6327 26.1721 14.7831 25.9903 14.9482C25.1836 15.7395 24.4816 16.6346 23.9021 17.6109C23.3535 18.5481 22.8814 19.5297 22.4906 20.5458C22.4132 20.7844 22.3251 21.099 22.2263 21.4895C22.1276 21.8801 22.0492 22.2696 21.9911 22.6582C21.9345 23.0201 21.9102 23.3864 21.9185 23.7528C21.8987 24.0133 21.9731 24.2721 22.1276 24.4806C22.1802 24.5663 22.2591 24.6319 22.352 24.6673C22.445 24.7026 22.5468 24.7056 22.6417 24.6759C22.8871 24.6188 23.121 24.5187 23.3329 24.38C23.5681 24.2309 23.7897 24.0606 23.9951 23.8712C24.2003 23.6739 24.3426 23.5388 24.422 23.4658C24.8344 23.0714 25.2217 22.667 25.5837 22.2528C25.9458 21.8386 26.304 21.4146 26.6583 20.9807C27.0301 20.5605 27.3883 20.1316 27.7329 19.6937C28.0776 19.2558 28.4251 18.816 28.7756 18.3742C28.9324 18.1947 29.0893 17.9975 29.2461 17.7825C29.3847 17.5881 29.5656 17.4292 29.7747 17.318C29.812 17.2895 29.8555 17.2706 29.9015 17.2629C29.9475 17.2552 29.9946 17.2588 30.039 17.2736C30.1174 17.3032 30.158 17.3772 30.158 17.4985C30.154 17.8051 30.1249 18.1109 30.0709 18.4126C30.0128 18.7617 29.9393 19.1266 29.8502 19.5073C29.7611 19.888 29.6604 20.2637 29.5481 20.6345C29.4386 20.9903 29.3106 21.3399 29.1648 21.6818C29.0079 22.0211 28.8559 22.3653 28.7088 22.7144C28.5616 23.0635 28.4193 23.4136 28.2819 23.7647ZM27.5761 24.4806C27.2836 24.5796 26.9983 24.6992 26.7222 24.8386C26.4473 24.9787 26.1733 25.1088 25.9003 25.2292C25.4879 25.4501 25.0861 25.6601 24.695 25.8593C24.2931 26.065 23.9093 26.3055 23.5478 26.5783C23.1954 26.8386 22.8324 27.1345 22.4587 27.4658C22.1079 27.7582 21.8685 28.1664 21.782 28.6196C21.7589 28.7454 21.7628 28.8748 21.7934 28.9989C21.8239 29.1229 21.8805 29.2388 21.9591 29.3386C22.0322 29.434 22.1262 29.5105 22.2337 29.5619C22.3412 29.6133 22.4591 29.6381 22.5778 29.6344C22.7756 29.656 22.9757 29.6255 23.1586 29.5457C23.331 29.4678 23.498 29.3778 23.6582 29.2764C23.9819 29.064 24.287 28.8234 24.5701 28.5575C24.849 28.2932 25.1137 28.0137 25.363 27.7202C25.8024 27.2357 26.2007 26.7141 26.5538 26.1611C26.8945 25.6226 27.2353 25.0625 27.5761 24.4806Z" stroke="#0B6A85" stroke-width="0.6" mask="url(#path-1-outside-1_1006_2)"/>
<path d="M36.9401 20.5187C36.8192 20.5797 36.6907 20.626 36.5575 20.6565C36.3962 20.6949 36.2211 20.703 36.0992 20.5978C35.9746 20.4903 35.9679 20.3219 35.9959 20.1687C35.9988 20.092 36.0195 20.017 36.0564 19.9494C36.0779 19.9085 36.0966 19.8664 36.1125 19.8234C36.1184 19.7826 36.1355 19.7439 36.1636 19.711C36.196 19.6732 36.2373 19.6495 36.2782 19.635C36.3161 19.6195 36.3567 19.6116 36.3975 19.6116C36.4405 19.6116 36.4833 19.6204 36.5229 19.6376L36.5367 19.6435L36.5491 19.6522C36.5993 19.6872 36.6529 19.7374 36.6775 19.8078C36.706 19.8891 36.6862 19.9682 36.6409 20.029C36.6377 20.0333 36.6345 20.0388 36.6305 20.0491C36.7445 20.0076 36.8503 19.9479 36.943 19.8723C37.1118 19.7309 37.2717 19.5805 37.4219 19.4217L37.4279 19.4153L37.4281 19.4155C37.4697 19.3762 37.5111 19.3415 37.5513 19.3158C37.5882 19.2923 37.6422 19.2643 37.7054 19.2643C37.8048 19.2643 37.9189 19.2836 37.9962 19.3666C38.0807 19.4574 38.0787 19.5753 38.0537 19.6705L38.0518 19.6777L38.0492 19.6847C38.0382 19.7142 38.0259 19.7465 38.0146 19.7762C38.0061 19.7982 37.9983 19.8188 37.9918 19.836L37.9889 19.8438L37.9887 19.8438C37.963 19.902 37.9317 19.9578 37.8952 20.0104C37.7979 20.211 37.6823 20.4363 37.5486 20.6863C37.4139 20.938 37.283 21.1924 37.1559 21.4495L36.9401 20.5187ZM36.9401 20.5187C36.8692 20.6469 36.7977 20.787 36.7256 20.939C36.6209 21.1597 36.5241 21.3858 36.435 21.6172C36.3482 21.8417 36.2782 22.0716 36.2256 22.3053C36.1757 22.5154 36.1599 22.7315 36.1788 22.9462C36.1789 23.1362 36.2492 23.319 36.3757 23.4636C36.5035 23.6098 36.6804 23.7075 36.8745 23.7418C37.1816 23.7974 37.4984 23.7826 37.7983 23.6988C38.1414 23.6127 38.477 23.5016 38.8019 23.3664L36.9401 20.5187ZM36.8614 22.2055L36.8614 22.2055C36.7922 22.4308 36.7653 22.6657 36.7818 22.8995L36.7824 22.9078L36.782 22.916C36.7805 22.9551 36.7881 22.9943 36.8047 23.0309C36.8214 23.0676 36.8467 23.1011 36.8797 23.1287C36.9127 23.1564 36.9524 23.1773 36.9962 23.1895L36.956 23.334L36.9962 23.1895C37.0399 23.2016 37.0862 23.2046 37.1315 23.198L37.142 23.1964L37.1527 23.1964C37.6196 23.1952 38.079 23.0885 38.4923 22.8859L38.4936 22.8852L38.4936 22.8852C38.9464 22.6686 39.3646 22.4602 39.7482 22.26L39.7494 22.2594L39.7494 22.2594C40.6409 21.804 41.4937 21.3986 42.3077 21.0436C43.1202 20.6892 43.9432 20.3473 44.7768 20.0181L44.7875 20.0139L44.7876 20.0143L44.9622 19.9604L45.0018 19.9482L45.042 19.958C45.1228 19.9778 45.2115 20.0086 45.2698 20.0684C45.3033 20.1027 45.3307 20.1507 45.3334 20.2106C45.336 20.2679 45.315 20.316 45.2917 20.351L45.2914 20.3515C45.2654 20.3903 45.2399 20.4249 45.2159 20.4514C45.2041 20.4644 45.189 20.4795 45.1711 20.4926C45.1617 20.4994 45.1396 20.5149 45.1082 20.5231C44.3413 20.8119 43.5886 21.114 42.8501 21.4294C42.1089 21.746 41.3723 22.0859 40.6404 22.449C40.3901 22.5757 40.1053 22.7249 39.7858 22.8967C39.467 23.0697 39.1386 23.2265 38.8019 23.3664L36.8614 22.2055ZM36.8614 22.2055L36.862 22.2034M36.8614 22.2055L36.862 22.2034M36.862 22.2034C36.9375 21.945 37.0357 21.6928 37.1559 21.4495L36.862 22.2034Z" fill="#0B6A85" stroke="#0B6A85" stroke-width="0.3"/>
<path d="M45.0515 22.3567L45.0515 22.3568L45.0568 22.3557C45.4461 22.2686 45.7958 22.063 46.0512 21.7687C46.2959 21.5089 46.4585 21.1894 46.5208 20.8466C46.9596 20.8454 47.3811 20.8383 47.7852 20.8251L47.7852 20.8251L47.7867 20.825C48.2802 20.804 48.7712 20.7483 49.2559 20.6585C49.7013 20.6044 50.1562 20.5449 50.6206 20.4801C51.0813 20.4158 51.542 20.3657 52.0027 20.3299C52.0682 20.3276 52.1198 20.2962 52.1551 20.2663C52.1921 20.2349 52.224 20.1944 52.252 20.1524L52.2523 20.152C52.2756 20.1168 52.2966 20.0687 52.294 20.0114C52.2913 19.9515 52.2639 19.9034 52.2304 19.869C52.172 19.8091 52.0832 19.7781 52.0021 19.7583L51.9765 19.7521L51.9503 19.7549L50.8019 19.8794L50.8019 19.8794L50.8005 19.8795C50.4013 19.9265 50.0173 19.9772 49.6485 20.0315C49.109 20.1051 48.5637 20.1689 48.0127 20.2228L48.0125 20.2228C47.4656 20.2769 46.9147 20.2858 46.3662 20.2495L46.3662 20.2492L46.3569 20.2492C46.3375 20.2491 46.3186 20.2454 46.3012 20.2385C46.2838 20.2316 46.2687 20.2217 46.2564 20.2099L46.2491 20.2029L46.241 20.197C46.104 20.0966 45.9387 20.0391 45.7676 20.0308C45.7277 20.021 45.6864 20.018 45.6454 20.0217C45.6791 19.9715 45.7128 19.9216 45.7466 19.8721C45.7697 19.8544 45.7938 19.8379 45.8191 19.8229C45.8775 19.799 45.9428 19.7591 45.9796 19.6887C46.0239 19.6038 46.0058 19.5177 45.9727 19.4536L45.9675 19.4436L45.9609 19.4345C45.914 19.3698 45.8526 19.3076 45.7719 19.2794C45.6834 19.2486 45.5976 19.2671 45.5274 19.314C45.4158 19.3777 45.3212 19.4663 45.2522 19.573C45.0013 19.8866 44.7835 20.2228 44.602 20.5768C44.3822 20.9643 44.2948 21.4074 44.3528 21.8448L44.3526 21.8448L44.354 21.8524C44.3865 22.0279 44.4569 22.1795 44.5863 22.2747C44.7178 22.3713 44.8808 22.3885 45.0515 22.3567ZM45.1379 20.8179C45.2055 20.7065 45.2736 20.5966 45.3421 20.4882C45.3542 20.5199 45.3709 20.5495 45.3917 20.5763C45.4222 20.6156 45.4607 20.6478 45.5042 20.6712C45.5415 20.6913 45.582 20.7047 45.6237 20.711C45.7033 20.7386 45.7859 20.7573 45.8699 20.7669C45.89 20.7705 45.9047 20.7747 45.915 20.7785C45.9151 20.7786 45.9153 20.7786 45.9154 20.7787C45.9048 20.9952 45.8093 21.2023 45.6442 21.3592L45.6441 21.359L45.6381 21.3654C45.4645 21.5507 45.2473 21.6965 45.0029 21.7906C44.967 21.8004 44.9415 21.8035 44.9247 21.8034C44.9212 21.8034 44.9182 21.8032 44.9158 21.803C44.9143 21.7963 44.9128 21.7852 44.9128 21.7682V21.7607L44.912 21.7532C44.8792 21.4285 44.9574 21.1018 45.1362 20.8206L45.1363 20.8206L45.1379 20.8179Z" fill="#0B6A85" stroke="#0B6A85" stroke-width="0.3"/>
<path d="M54.7102 20.5358C54.5667 20.6123 54.4279 20.6985 54.2947 20.794L54.2934 20.795L54.2934 20.795C54.0348 20.9762 53.7907 21.1379 53.5611 21.28M54.7102 20.5358L53.5605 21.2804C53.5607 21.2802 53.5609 21.2801 53.5611 21.28M54.7102 20.5358C54.6116 20.8602 54.5328 21.191 54.4743 21.5262C54.4462 21.6292 54.4409 21.7375 54.4588 21.8429C54.4772 21.9511 54.5197 22.0538 54.5834 22.1424L54.583 22.1427L54.591 22.152C54.6517 22.2234 54.727 22.2804 54.8121 22.3184L54.8733 22.1815L54.8121 22.3184C54.8967 22.3563 54.9884 22.3743 55.0808 22.3709C55.2845 22.3668 55.4867 22.3348 55.6823 22.2756C55.6824 22.2756 55.6825 22.2756 55.6825 22.2756L56.3375 22.0799L56.3375 22.0799L56.3385 22.0795C56.5659 22.0098 56.7898 21.9278 57.0091 21.8336L57.01 21.8332C57.217 21.7428 57.3951 21.6684 57.5446 21.61L57.5446 21.6101L57.5493 21.6081C58.1544 21.3481 58.7452 21.1138 59.3217 20.9052L59.3219 20.9051L61.1025 20.2583L61.1026 20.2585L61.111 20.2549C61.2286 20.2038 61.3447 20.1111 61.3447 19.9511C61.3447 19.8689 61.3091 19.797 61.2455 19.7465C61.1891 19.7017 61.1181 19.6793 61.0497 19.667L61.0121 19.6602L60.9758 19.6723C60.5524 19.8132 60.1523 19.9542 59.7754 20.0953C59.7753 20.0954 59.7751 20.0954 59.775 20.0955L58.7521 20.4719L58.7519 20.472L57.8126 20.8161L57.8124 20.8155L57.7998 20.8215C57.5945 20.919 57.3599 21.0228 57.0956 21.1327C56.8339 21.2384 56.5714 21.3362 56.3079 21.4263C56.0429 21.5168 55.7979 21.5964 55.5728 21.6651L55.5728 21.665L55.5679 21.6667C55.4077 21.7216 55.2413 21.7538 55.0732 21.7624C55.0595 21.7622 55.0496 21.7611 55.0429 21.7598C55.0429 21.7492 55.0446 21.7323 55.0506 21.7079L55.051 21.708L55.0528 21.6972C55.0872 21.4945 55.1337 21.2944 55.1921 21.098C55.2509 20.9039 55.3086 20.6962 55.3653 20.4749L55.3655 20.474C55.4048 20.3165 55.4198 20.1688 55.3841 20.0491C55.3652 19.9858 55.3311 19.9271 55.2769 19.8824C55.2229 19.838 55.159 19.8156 55.0938 19.808L55.0849 19.807L55.0759 19.807C54.9095 19.8077 54.7472 19.8579 54.6079 19.951L54.6912 20.0757L54.6089 19.9503C54.4888 20.029 54.3741 20.0965 54.2648 20.1532L54.2647 20.1531L54.2581 20.1569L53.6449 20.516L53.0317 20.875L53.0316 20.875L53.028 20.8772C52.923 20.9428 52.8077 20.9867 52.688 21.007C52.6135 21.0143 52.5896 20.9999 52.587 20.9979C52.5869 20.9979 52.5869 20.9979 52.5869 20.9978C52.5865 20.9976 52.5852 20.9967 52.5832 20.9919C52.5806 20.9855 52.5768 20.9715 52.5767 20.9462C52.5802 20.7476 52.6204 20.5519 52.6949 20.3699L52.6949 20.37L52.696 20.3673C52.7815 20.1468 52.8785 19.9314 52.9865 19.7223C53.0202 19.6613 53.0491 19.5854 53.0385 19.5043C53.0265 19.4123 52.9691 19.3491 52.9018 19.3112C52.8209 19.2622 52.7228 19.2452 52.6261 19.2912C52.5405 19.3318 52.4811 19.4107 52.4379 19.4917L52.4376 19.4916L52.4339 19.4997C52.3399 19.704 52.2462 19.9256 52.1501 20.1671C52.0551 20.3913 52.0027 20.6326 51.9956 20.8776M54.7102 20.5358L51.9956 20.8776M53.5611 21.28C53.4549 21.3471 53.3441 21.406 53.2297 21.4563L53.2289 21.4567L53.2289 21.4567C53.1121 21.5071 52.9961 21.5537 52.8809 21.5962L52.8697 21.6003L52.8696 21.5998C52.7637 21.6297 52.6527 21.6351 52.5444 21.6157C52.4362 21.5964 52.3337 21.5528 52.2437 21.4884L52.2368 21.4834L52.2305 21.4777C52.1477 21.4029 52.0836 21.3089 52.0431 21.2039C52.0031 21.1003 51.9869 20.9885 51.9956 20.8776M53.5611 21.28L51.9956 20.8776" fill="#0B6A85" stroke="#0B6A85" stroke-width="0.3"/>
<path d="M60.497 22.6201C60.5371 22.5582 60.5774 22.4964 60.618 22.4347C60.9935 21.8625 61.3996 21.3107 61.8348 20.7815C62.0197 20.5363 62.2235 20.3057 62.4444 20.0916C62.6355 19.8871 62.8608 19.7168 63.1103 19.588L63.1168 19.5846L63.1169 19.5848C63.1843 19.554 63.2582 19.5399 63.3322 19.5436C63.4058 19.5472 63.4775 19.5683 63.5413 19.6052M60.497 22.6201L63.467 19.7355M60.497 22.6201C60.5724 22.4433 60.6467 22.2655 60.72 22.0867C61.163 21.1034 61.606 20.1415 62.049 19.2011C62.0837 19.1855 62.1156 19.1639 62.1432 19.1373L62.1432 19.1373L62.1455 19.135C62.1986 19.0815 62.2464 19.0222 62.2719 18.9583C62.3 18.8878 62.3049 18.7965 62.242 18.7187L62.2374 18.7131L62.2324 18.7079C62.1537 18.6278 62.0497 18.5772 61.9381 18.5644L61.9296 18.5634H61.921C61.8453 18.5634 61.7879 18.6045 61.7536 18.6354C61.7164 18.669 61.6821 18.7126 61.6504 18.7595C61.5869 18.8508 61.5208 18.961 61.4521 19.0891C61.452 19.0892 61.452 19.0894 61.4519 19.0895L61.2485 19.4635C61.1944 19.5592 61.1478 19.659 61.1091 19.7619C60.7195 20.5688 60.3548 21.3767 60.0149 22.1857C59.6748 22.9951 59.3396 23.813 59.0091 24.6395L59.009 24.6394L59.0068 24.6457C58.8407 25.1216 58.6621 25.5937 58.4711 26.0621L58.4711 26.0621L58.4706 26.0635L57.896 27.5153C57.861 27.5939 57.8375 27.6839 57.8572 27.7722C57.88 27.8739 57.9519 27.9401 58.0387 27.973L58.0529 27.9783L58.0678 27.9807C58.1568 27.9952 58.249 27.9822 58.3275 27.9238C58.4 27.8698 58.4423 27.7905 58.467 27.7079C58.5026 27.6187 58.5435 27.5312 58.5896 27.4452C58.6419 27.3478 58.6882 27.2482 58.7286 27.1466C59.0125 26.4797 59.3259 25.8317 59.6688 25.2025C60.0129 24.5712 60.376 23.9493 60.7584 23.3368L60.7588 23.3361L60.934 23.0522C60.934 23.052 60.9341 23.0519 60.9342 23.0518C60.9637 23.0047 60.9946 22.9585 61.0271 22.9133C61.0805 22.9511 61.1402 22.9799 61.2041 22.998L61.245 22.8537L61.2041 22.998C61.3289 23.0335 61.4621 23.0263 61.5822 22.9776M63.5413 19.6052C63.5417 19.6054 63.5421 19.6056 63.5425 19.6058L63.467 19.7355M63.5413 19.6052C63.5409 19.605 63.5405 19.6047 63.5401 19.6045L63.467 19.7355M63.5413 19.6052C63.6088 19.6432 63.6643 19.6994 63.7011 19.7675C63.7373 19.8345 63.7541 19.9103 63.7494 19.9863M63.467 19.7355C63.5103 19.7597 63.5457 19.7955 63.5692 19.8389C63.5926 19.8823 63.6031 19.9313 63.5994 19.9803M63.7494 19.9863C63.7494 19.9848 63.7494 19.9833 63.7494 19.9818L63.5994 19.9803M63.7494 19.9863C63.7454 20.3133 63.6524 20.6331 63.4802 20.9121C63.3766 21.0872 63.2785 21.2492 63.1859 21.398M63.7494 19.9863C63.7493 19.988 63.7491 19.9898 63.749 19.9916L63.5994 19.9803M63.5994 19.9803L63.1859 21.398M63.1859 21.398C63.6663 21.3558 64.1429 21.2777 64.6117 21.1643C65.1512 21.0304 65.682 20.8777 66.2042 20.7062L66.2122 20.7036L66.2123 20.7038C66.4232 20.6474 66.6883 20.5711 67.008 20.4745C67.3271 20.3781 67.622 20.2838 67.8926 20.1914L67.8988 20.1893L67.8988 20.1894C68.2267 20.0933 68.5546 19.9887 68.8825 19.8756L68.9187 19.8631L68.9564 19.8695C69.0906 19.8921 69.2343 19.952 69.2797 20.1059C69.305 20.1917 69.284 20.2764 69.2241 20.3408C69.1741 20.3947 69.1038 20.4273 69.037 20.4499L69.0347 20.4506L69.0347 20.4506L68.1451 20.7353L68.1438 20.7357L67.2272 21.0199C66.4281 21.2902 65.6384 21.5217 64.858 21.7142C64.1722 21.9023 63.4665 22.01 62.7554 22.035L62.7551 22.0278C62.7534 22.0304 62.7516 22.0329 62.7498 22.0355C62.7492 22.0363 62.7487 22.0372 62.7481 22.038C62.7469 22.0388 62.7459 22.0397 62.745 22.0407L63.1859 21.398ZM62.1167 21.476H62.0587C62.0994 21.4238 62.1414 21.3725 62.1845 21.3222L62.1846 21.3222L62.1884 21.3174C62.3225 21.1474 62.4663 20.9772 62.6197 20.8067L62.6204 20.8059C62.7548 20.6545 62.8989 20.5118 63.0518 20.3786C63.0067 20.4995 62.9491 20.6159 62.8796 20.7258L62.8795 20.7258L62.8783 20.7279C62.7357 20.9616 62.5885 21.2009 62.4368 21.4455C62.4365 21.4457 62.4363 21.4458 62.4361 21.4459L62.4363 21.4463L62.4361 21.4459C62.4339 21.4469 62.4315 21.4476 62.4289 21.4477L62.4186 21.4482L62.4084 21.4501C62.3127 21.4682 62.2155 21.4769 62.1181 21.476V21.476H62.1167ZM61.6719 22.1252C61.7443 22.0825 61.8273 22.0601 61.9118 22.0607C61.8257 22.1465 61.7372 22.23 61.6462 22.3108C61.5876 22.3565 61.5211 22.3915 61.4498 22.4139L61.4497 22.4136L61.4404 22.4172C61.4359 22.4189 61.4317 22.4205 61.4278 22.4219C61.434 22.3689 61.4524 22.3177 61.482 22.2723C61.5222 22.2108 61.5809 22.1629 61.6503 22.1358L61.6615 22.1314L61.6719 22.1252Z" fill="#0B6A85" stroke="#0B6A85" stroke-width="0.3"/>
<path d="M16.7257 6.11148C21.6161 6.11148 24.0613 7.7414 24.0613 11.0013C24.0613 14.2611 21.6161 15.8911 16.7257 15.8911H0.829285V12.2229H17.9509C19.5803 12.2229 20.3951 11.8157 20.3951 11.0013C20.3951 10.1868 19.5803 9.77959 17.9509 9.77959H8.16799C3.27758 9.77959 0.832389 8.14967 0.832389 4.88981C0.832389 1.62994 3.27758 0 8.16799 0H24.0644V3.66813H6.94591C5.31439 3.66813 4.49969 4.07536 4.50175 4.88981C4.50382 5.70426 5.31853 6.11148 6.94591 6.11148H16.7257Z" fill="#404040"/>
<path d="M32.8404 15.8911L22.4058 0H26.7815L34.4382 11.733L42.095 0H46.4707L36.0361 15.8911H32.8404Z" fill="#404040"/>
<path d="M45.6403 4.88981C45.6403 1.62994 48.0861 0 52.9778 0H61.5378C66.4295 0 68.8754 1.62994 68.8754 4.88981V11.0013C68.8754 14.2611 66.4295 15.8911 61.5378 15.8911H52.9778C48.0861 15.8911 45.6403 14.2611 45.6403 11.0013V4.88981ZM51.7554 3.66813C50.1235 3.66813 49.3085 4.07536 49.3106 4.88981V11.0013C49.3106 11.8157 50.1255 12.2229 51.7554 12.2229H62.7633C64.3932 12.2229 65.2082 11.8157 65.2082 11.0013V4.88981C65.2082 4.07536 64.3932 3.66813 62.7633 3.66813H51.7554Z" fill="#404040"/>
</svg>
