<svg width="1439" height="115" viewBox="0 0 1439 115" fill="none" xmlns="http://www.w3.org/2000/svg">
<path d="M-1.00026 84.907C87.9997 55.4071 449.099 90.2696 575.01 100.005C588.904 101.08 616.992 97.2096 621.474 94.678C625.956 92.1464 637.466 93.5654 636.005 99.0758C634.544 104.586 627.562 107.135 625.562 107.15C623.562 107.164 609.02 101.266 620.428 88.1852C631.836 75.1046 652.273 65.9605 654.343 75.9462C656.413 85.9319 642.414 86.0304 641.896 83.534C641.378 81.0376 639.333 74.5518 656.318 72.4322C669.907 70.7365 686.674 75.5519 693.36 78.1716C699.048 81.2983 710.628 87.8503 711.437 89.0446C712.245 90.239 725.099 88.4484 731.426 87.4039C733.254 86.7243 736.909 84.9652 736.897 83.3653C736.886 81.7653 736.869 79.3654 736.862 78.3654C738.857 77.6847 743.044 75.7218 743.827 73.3162C744.806 70.3093 743.263 64.32 744.742 61.3095C746.221 58.299 751.731 59.7603 753.207 56.2498C754.682 52.7393 751.126 44.7642 753.112 42.7501C755.098 40.7361 768.15 48.1444 774.139 46.6022C780.129 45.06 803.438 17.8952 808.438 17.86C813.438 17.8248 838.832 2.64571 849.824 1.5683C860.817 0.490894 862.324 1.48031 862.824 1.47679C863.324 1.47327 855.87 8.02592 851.37 8.05759C846.87 8.08927 818.374 8.78987 813.389 10.825C808.403 12.8602 781.523 30.0498 776.513 28.585C772.504 27.4132 757.749 14.8834 750.872 8.76503C746.371 8.63005 736.076 9.36921 730.905 13.4057C724.44 18.4513 711.469 22.5427 706.972 23.0744C702.476 23.6061 690.008 28.194 682.504 27.7468C675.001 27.2996 641.435 18.0356 631.407 14.1061C620.883 10.6801 616.376 9.7118 607.883 10.7716C601.387 11.3174 587.016 15.6186 581.507 28.4577C574.62 44.5066 571.665 51.0275 573.267 65.5166C574.869 80.0057 571.212 80.9055 575.743 85.3737C580.275 89.8419 583.824 87.2917 585.803 85.623C588.853 83.0503 586.119 77.3826 580.833 78.5659C576.334 79.5728 574.419 87.0091 578.929 88.4773C583.44 89.9456 594.96 92.8646 598.429 88.3401C601.203 84.7205 597.237 82.3111 595.067 81.8264C593.565 81.5036 590.122 81.9208 588.904 84.907C587.05 89.4564 595.809 92.0357 597.266 92.3936C599.988 93.0624 604.981 95.7941 608.443 90.2696C611.904 84.7451 602.706 80.4499 599.929 88.3295C598.193 93.2527 617.016 100.71 625.505 99.1498C633.995 97.59 646.709 56.9994 646.625 44.9997C646.54 33 651.382 10.4654 647.882 10.49C644.382 10.5147 637.597 41.0632 634.22 58.5874C630.843 76.1116 629.502 98.6216 646.987 96.4985C660.976 94.8 667.053 82.0235 668.343 75.8476C671.449 67.3256 677.751 48.5807 678.103 41.7781C678.543 33.2748 676.952 20.2857 673.952 20.3068C670.952 20.3279 663.364 78.8828 674.374 80.3053C685.384 81.7278 681.853 77.2526 685.874 80.2243C689.895 83.1961 694.423 87.1643 691.948 90.6818C689.472 94.1994 686.476 94.7205 680.962 92.7592C675.448 90.798 676.427 87.791 677.395 83.2841C678.363 78.7772 700.902 84.1187 703.437 89.1009C705.972 94.0832 709.504 98.5585 706.521 101.08C703.539 103.601 690.504 98.6922 691.972 94.1818C693.441 89.6713 702.416 86.108 709.447 90.5587C716.479 95.0093 725.042 103.949 722.067 107.47C719.091 110.991 717.605 113.002 715.098 112.019C712.592 111.037 707.563 107.072 707.546 104.572C707.528 102.072 713.968 93.5269 717.986 95.9987C722.003 98.4705 729.091 110.921 733.098 111.893C737.105 112.865 738.119 114.857 741.108 113.336C744.098 111.815 746.062 106.801 745.045 104.308C744.027 101.816 738.02 100.858 734.003 98.386C729.985 95.9142 729.468 93.4178 730.461 92.4108C731.454 91.4038 739.052 105.351 742.566 107.326C746.08 109.301 750.08 109.273 753.573 108.248C757.066 107.224 760.037 103.203 760.02 100.703C760.002 98.203 758.971 93.7101 756.971 93.7242C755.371 93.7355 746.593 87.4638 742.404 84.3265C741.898 83.4967 741.186 81.735 742.383 81.3266C743.88 80.816 749.1 84.2794 749.925 87.2736C750.751 90.2679 754.02 100.745 763.02 100.682C772.02 100.618 776.984 95.5834 776.953 91.0835C776.927 87.4836 764.492 73.0041 758.277 66.2143C756.939 65.5571 754.065 64.4439 753.27 65.2496C752.277 66.2566 779.924 87.0625 781.435 88.5519C782.643 89.7434 785.617 90.6892 786.952 91.0131L789.945 89.992L793.903 83.964C794.547 80.7927 795.434 74.153 793.826 72.9643C791.815 71.4784 749.577 37.7749 744.577 37.8101C739.577 37.8453 733.549 33.8876 728.063 35.9263C723.674 37.5572 717.927 40.3311 715.602 41.5141C711.944 42.7066 704.322 44.3936 703.102 41.6021C701.578 38.1128 700.55 34.1199 711.053 34.546C721.556 34.972 716.007 28.0109 714.514 29.0215C713.32 29.8299 707.026 30.7409 704.029 31.0953C702.545 33.4392 701.478 38.1135 709.078 38.06C718.577 37.9931 720.972 22.9759 711.983 24.5392C704.791 25.7898 706.993 26.0743 708.993 26.0603C708.993 26.0603 711.555 24.8721 715.472 23.0146C717.618 21.9968 722.451 19.9654 726.44 18.4372C730.429 16.9091 733.91 14.1846 737.904 13.3564C742.897 12.3213 742.904 13.3212 747.904 13.286C750.904 13.2649 758.733 20.71 762.46 21.1838C766.188 21.6575 774.97 22.5957 776.481 24.0851C777.991 25.5746 793.051 33.9687 786.646 47.5142C781.522 58.3505 772.861 54.4447 769.171 51.1373L794.808 70.4573L799.382 80.9254C800.562 82.9171 802.224 86.9055 799.424 86.9252C795.924 86.9498 795.871 79.45 800.871 79.4148C804.871 79.3867 807.862 78.0323 808.857 77.3586C809.856 77.1849 811.846 75.7375 811.815 71.3376C811.784 66.9377 808.722 58.1924 807.195 54.3697L797.026 30.4407C794.832 26.4862 788.946 19.0698 782.96 21.0395C776.974 23.0091 785.799 21.8226 790.96 20.9832C793.964 21.6287 800.386 24.7169 802.037 31.9055C803.687 39.094 813.25 62.1606 817.825 72.7953C821.578 85.1026 827.987 110.025 823.596 111.256C819.204 112.487 813.956 91.4897 811.881 80.8374C814.447 90.1529 821.377 108.571 828.571 107.721C835.765 106.87 855.582 95.9987 870.968 92.9217C1206.55 61.3095 1258 -5.99505 1438 46.6022" stroke="#0B6A85"/>
</svg>
